<svg xmlns="http://www.w3.org/2000/svg" viewBox="0 0 13.49 12.3"><defs><style>.b3ecb051-cbb2-496e-a6bc-3d21dcece7a2{fill:#5ab036;}</style></defs><g id="ef6d3106-920b-4225-938e-ba663683d2cf" data-name="Layer 2"><g id="ad97cd10-ab61-4754-9c7e-70b7a7e9eb50" data-name="Layer 2"><g id="b3c3bcdc-6c7a-450a-8988-7ea426fa815e" data-name="Illustratie 1"><path class="b3ecb051-cbb2-496e-a6bc-3d21dcece7a2" d="M9.79,7.11A4.37,4.37,0,0,0,9.3,7,.42.42,0,0,1,9,6.75,2.2,2.2,0,0,0,6.76,5.34,2.31,2.31,0,0,0,5,7.86a.4.4,0,0,1-.15.34,3,3,0,0,0-.32.3,2.37,2.37,0,0,0-.16,3.32,2.37,2.37,0,0,0,3.29-.47l.12-.14a.45.45,0,0,1,.52-.14l.17.06a2.37,2.37,0,0,0,3.09-1.21A2.37,2.37,0,0,0,9.79,7.11"/><path class="b3ecb051-cbb2-496e-a6bc-3d21dcece7a2" d="M2.71,4.66c1,.75,1.52,1.84,1.08,2.43s-1.61.47-2.64-.29A2.56,2.56,0,0,1,.07,4.37a2.55,2.55,0,0,1,2.64.29"/><path class="b3ecb051-cbb2-496e-a6bc-3d21dcece7a2" d="M5.7,2.29c.67,1.08.72,2.27.1,2.66S4.13,4.77,3.45,3.69A2.56,2.56,0,0,1,3.35,1,2.57,2.57,0,0,1,5.7,2.29"/><path class="b3ecb051-cbb2-496e-a6bc-3d21dcece7a2" d="M9.7,2.62c-.4,1.21-1.29,2-2,1.78S6.78,3,7.18,1.79,8.88-.12,9.16,0a2.53,2.53,0,0,1,.54,2.6"/><path class="b3ecb051-cbb2-496e-a6bc-3d21dcece7a2" d="M12.79,5.56c-.85,1-2,1.33-2.53.85S10,4.75,10.8,3.8A2.6,2.6,0,0,1,13.33,3a2.58,2.58,0,0,1-.54,2.61"/></g></g></g></svg>