<svg xmlns="http://www.w3.org/2000/svg" viewBox="0 0 13.43 12.3"><defs><style>.bec7b683-fb1b-4329-bd9e-3fc4721c52bf{fill:#faf3dd;}</style></defs><g id="a35d828d-2a27-4f06-82fb-190638d1a9bf" data-name="Layer 2"><g id="b31fd97e-3a80-4526-bab9-1c17ca4c7c7e" data-name="Layer 1"><g id="a42678ed-29b9-49da-98c4-3861a58e057a" data-name="ef6d3106-920b-4225-938e-ba663683d2cf"><g id="afbac983-cb3b-4885-9682-e3888caf9b5b" data-name="ad97cd10-ab61-4754-9c7e-70b7a7e9eb50"><g id="fdcf8c0d-f079-414c-a482-c6514fc88039" data-name="b3c3bcdc-6c7a-450a-8988-7ea426fa815e"><path class="bec7b683-fb1b-4329-bd9e-3fc4721c52bf" d="M9.74,7.12,9.25,7A.42.42,0,0,1,9,6.76,2.21,2.21,0,0,0,6.71,5.35,2.31,2.31,0,0,0,5,7.87a.4.4,0,0,1-.15.34l-.32.3a2.37,2.37,0,0,0-.16,3.32,2.37,2.37,0,0,0,3.29-.47l.12-.14a.47.47,0,0,1,.52-.14l.17.06a2.36,2.36,0,0,0,3.09-1.21A2.37,2.37,0,0,0,9.74,7.12"/><path class="bec7b683-fb1b-4329-bd9e-3fc4721c52bf" d="M2.66,4.67c1,.75,1.52,1.84,1.08,2.43s-1.61.47-2.64-.29A2.57,2.57,0,0,1,0,4.38a2.57,2.57,0,0,1,2.64.29"/><path class="bec7b683-fb1b-4329-bd9e-3fc4721c52bf" d="M5.65,2.3c.67,1.08.72,2.27.1,2.66S4.08,4.78,3.4,3.7A2.56,2.56,0,0,1,3.3,1,2.6,2.6,0,0,1,5.65,2.3"/><path class="bec7b683-fb1b-4329-bd9e-3fc4721c52bf" d="M9.65,2.63c-.4,1.21-1.29,2-2,1.78S6.73,3,7.13,1.8,8.83-.11,9.11,0a2.52,2.52,0,0,1,.54,2.6"/><path class="bec7b683-fb1b-4329-bd9e-3fc4721c52bf" d="M12.74,5.57c-.85,1-2,1.33-2.53.85s-.26-1.66.54-2.61A2.61,2.61,0,0,1,13.28,3a2.57,2.57,0,0,1-.54,2.61"/></g></g></g></g></g></svg>