<svg xmlns="http://www.w3.org/2000/svg" viewBox="0 0 13.68 12.55"><defs><style>.b8382d60-a842-4e26-8761-da3cc7aec928{fill:none;stroke:#5ab036;stroke-miterlimit:10;stroke-width:0.25px;}</style></defs><g id="f524a4f9-f4f2-4921-8d6f-6e66cb6cfc7f" data-name="Layer 2"><g id="faef22b0-e55a-49f0-aaa6-2a7e92b3ad11" data-name="Layer 1"><g id="ab9517d3-b499-461b-b207-c1e380527834" data-name="ef6d3106-920b-4225-938e-ba663683d2cf"><g id="e2ae2feb-ddb7-4c85-9c43-27467a729a6b" data-name="ad97cd10-ab61-4754-9c7e-70b7a7e9eb50"><g id="f2aea88c-b145-4bdf-ac51-fb01be5f3702" data-name="b3c3bcdc-6c7a-450a-8988-7ea426fa815e"><path class="b8382d60-a842-4e26-8761-da3cc7aec928" d="M9.87,7.25a4.85,4.85,0,0,0-.49-.11.4.4,0,0,1-.3-.25A2.21,2.21,0,0,0,6.84,5.48,2.3,2.3,0,0,0,5.08,8a.43.43,0,0,1-.15.34,2.27,2.27,0,0,0-.32.3A2.36,2.36,0,0,0,4.45,12a2.37,2.37,0,0,0,3.29-.47l.12-.14a.43.43,0,0,1,.52-.14l.17.06a2.38,2.38,0,0,0,3.09-1.21A2.38,2.38,0,0,0,9.87,7.25"/><path class="b8382d60-a842-4e26-8761-da3cc7aec928" d="M2.79,4.8c1,.75,1.52,1.84,1.08,2.43s-1.61.47-2.64-.29A2.54,2.54,0,0,1,.15,4.51a2.53,2.53,0,0,1,2.64.29"/><path class="b8382d60-a842-4e26-8761-da3cc7aec928" d="M5.78,2.43c.67,1.08.72,2.27.1,2.66S4.21,4.91,3.53,3.83a2.56,2.56,0,0,1-.1-2.69A2.56,2.56,0,0,1,5.78,2.43"/><path class="b8382d60-a842-4e26-8761-da3cc7aec928" d="M9.78,2.76c-.4,1.21-1.29,2-2,1.78s-.92-1.4-.52-2.61S9,0,9.24.14a2.55,2.55,0,0,1,.54,2.6"/><path class="b8382d60-a842-4e26-8761-da3cc7aec928" d="M12.87,5.7c-.85,1-2,1.33-2.53.85s-.26-1.66.54-2.61a2.59,2.59,0,0,1,2.53-.8,2.6,2.6,0,0,1-.54,2.61"/></g></g></g></g></g></svg>