<svg xmlns="http://www.w3.org/2000/svg" viewBox="0 0 142.99 142.99"><defs><style>.fa2e14a6-05dd-46a0-b819-62b19a23ed07{fill:none;stroke:#231f20;stroke-miterlimit:10;stroke-width:5px;}</style></defs><title>tAsset 7</title><g id="b67502f8-74a8-4e46-ad51-e5a1e3ce8759" data-name="Layer 2"><g id="e090beac-4bcd-4b0a-bb2d-830ccf1a73f2" data-name="Layer 1"><path class="fa2e14a6-05dd-46a0-b819-62b19a23ed07" d="M114.55,57.09a39.57,39.57,0,0,1-7.17,22.57Q91.06,102.6,74.69,125.49c-2,2.87-4.68,2.88-6.71,0-11-15.46-22.16-30.87-33.07-46.43a38.07,38.07,0,0,1-6.66-24.7C29.38,34.77,45.1,18.73,64.68,15.84A43.8,43.8,0,0,1,109,36.57,41.25,41.25,0,0,1,114.55,57.09Zm-21.68,1.4A21.55,21.55,0,1,0,71.53,80,21.57,21.57,0,0,0,92.87,58.49Z"/><rect class="fa2e14a6-05dd-46a0-b819-62b19a23ed07" x="2.5" y="2.5" width="137.99" height="137.99" rx="7.4"/></g></g></svg>