<svg xmlns="http://www.w3.org/2000/svg" viewBox="0 0 400.62 406.14"><defs><style>.b5741657-e9e8-480e-bd36-d4759de758df{fill:#5ab036;}</style></defs><g id="b96f01ca-c529-4b72-94a9-9adf742330e2" data-name="Layer 2"><g id="a5dad605-6a22-4046-abe5-9c58fc609525" data-name="Layer 1"><path class="b5741657-e9e8-480e-bd36-d4759de758df" d="M341.37,175.57a40.67,40.67,0,0,0-12.07,2.12,41.87,41.87,0,0,0-5.78,2.44,31.82,31.82,0,0,0-3.57,2q-2.31.62-4.57,1.43a54.39,54.39,0,0,0-15.67,8.76c-1.24,1-2.82,2.17-3.14,3.84-.61,3.26,3.57,4.47,6,4.57a24.32,24.32,0,0,0,7.1-.75,14.67,14.67,0,0,0,5.71-2.51c1.22-1,2.15-2.56,1.56-4.17a3,3,0,0,0-3.74-1.91c-1.17.36-.84,1.63.34,1.27,1.52-.46,1.78,2.19,1.35,3a5.44,5.44,0,0,1-3,2.2,20.62,20.62,0,0,1-9.12,1.47c-2.09-.15-5.73-1.65-3.83-4.31a13.6,13.6,0,0,1,2.83-2.52c1.17-.9,2.38-1.76,3.62-2.56a51.46,51.46,0,0,1,12.64-5.9c-.32.87.13,1.71,1.31,2a13.09,13.09,0,0,0,5.77-.27c1.34-.32,3.8-.85,4.24-2.4s-1.15-2.39-2.4-2.48a10,10,0,0,0-2.23.13,38.38,38.38,0,0,1,16.43-4.08C342.27,176.91,342.69,175.54,341.37,175.57Zm-16.53,6.85c.66-.11,1.65-.4,2.23,0,1.18.9-.49,1.51-1.17,1.73a12.78,12.78,0,0,1-4.63.63c-.23,0-.91.05-1.07-.12-.57-.59,0-.93.32-1.18l.4-.28C322.22,182.92,323.52,182.64,324.84,182.42Z"/><path class="b5741657-e9e8-480e-bd36-d4759de758df" d="M296.72,205.71c-.89.8-1.78,1.61-2.65,2.45a4.58,4.58,0,0,0-1.59,2.48,1.83,1.83,0,0,0,1.07,1.93,2.67,2.67,0,0,0,3-.61c.29-.33-.26-.45-.49-.44a1.9,1.9,0,0,0-1.29.49c-.1.12,0,0,.06,0a1.55,1.55,0,0,1,.56-.15c.15,0,0,0,0,0,.12,0-.08,0-.08,0a1.44,1.44,0,0,1-.61-.48,1.64,1.64,0,0,1,0-1.77,6.83,6.83,0,0,1,1.51-1.75c.68-.65,1.37-1.28,2.07-1.9.09-.08.25-.21.21-.36s-.25-.18-.36-.2a1.94,1.94,0,0,0-1.37.37Z"/><path class="b5741657-e9e8-480e-bd36-d4759de758df" d="M385.81,176a11.15,11.15,0,0,0-7.14-.68,46.86,46.86,0,0,0-17.25,7.13l-.13.09s0,0,0,0a7.2,7.2,0,0,0-3,2.72,4,4,0,0,0,1.69,5.31c2,1.26,4.48,1.07,6.67.63a57.53,57.53,0,0,0,8.05-2.35,62.64,62.64,0,0,0,6.15-2.61c2.37,6.37.28,13.54-4.08,18.58-4.9,5.66-12.47,8.27-19.71,9.15a53.83,53.83,0,0,1-14.4-.15A43.36,43.36,0,0,0,338.35,200c-3-5.52-8-8.86-13.38-11.8-.53-.29-2.17.5-1.81.7,4.21,2.31,8.46,4.85,11.41,8.72s4.5,9,5.56,13.78c2.08,9.47,2,20.35-4.91,27.9-3.57,3.89-9.26,6.79-14.52,4.62-.48-.2-2.24.55-1.56.83a12,12,0,0,0,5.33.82.92.92,0,0,0-.59.63A43.24,43.24,0,0,1,320.7,257a5.48,5.48,0,0,1-3.68,3.47,39,39,0,0,1-5.16.83,27.81,27.81,0,0,1-5.62.21,9.21,9.21,0,0,1-2.77-.48c-1-.43-.64-1.61-.55-2.49q.6-5.91,1.19-11.83c.1-1-1.87-.72-1.95.15-.25,2.43-.49,4.85-.74,7.28-.07.76-.15,1.52-.23,2.27a1.52,1.52,0,0,0-.95.31c-1.34,1.36-4,1.24-5.73,1.37a62.23,62.23,0,0,1-6.83.14c-1.78-.06-4.64.32-5.13-1.9s-.57-4.46-.84-6.66c-.1-.74-2-.29-1.94.52l.54,4.31a8.75,8.75,0,0,0,.69,3.37,3.11,3.11,0,0,0,2.33,1.32,31.81,31.81,0,0,0,4,.27,66.47,66.47,0,0,0,8.11-.26c1.9-.18,4-.33,5.59-1.42a10.66,10.66,0,0,0-.18,3c.38,1.77,2.83,1.91,4.27,2.06a28.72,28.72,0,0,0,6.55-.16c3.67-.45,8.06-.65,10.17-4.16a27.63,27.63,0,0,0,2.47-6.07,48.51,48.51,0,0,0,1.51-6.41.48.48,0,0,0-.39-.58,18.43,18.43,0,0,0,7.27-2.67,22.12,22.12,0,0,0,8.47-10.11c2.24-5.25,2.46-11.18,1.75-16.77,0-.21-.05-.42-.09-.63,14.84,1.94,35-1.78,40-18a17.77,17.77,0,0,0-.26-11.93v0c1.25-.65,2.51-1.34,3.7-2.08a5.43,5.43,0,0,0,2.29-2.16C389.55,179,387.53,176.88,385.81,176Zm.57,5.8a9.5,9.5,0,0,1-2.8,1.9,62.42,62.42,0,0,1-6.07,3,61.7,61.7,0,0,1-6.34,2.34,24.78,24.78,0,0,1-6.46,1.45c-2.25.06-5-1.3-5-3.92.07-2.25,2.42-3.46,4.21-4.28.42-.19.56-.37.54-.53a45,45,0,0,1,9.86-4.43c3.7-1.14,9.15-2.63,11.85,1.22A2.59,2.59,0,0,1,386.38,181.77Z"/><path class="b5741657-e9e8-480e-bd36-d4759de758df" d="M376.82,174.35c.09,1-1.84,1.45-1.93.52a31.68,31.68,0,0,0-7.28-17.44c-1.32-1.58-3-3.65-5.16-3.84-.94-.09-.7-.87-.11-1.25h0c.59-1.35-.14-2.79-.76-4s-1.33-2.5-2.08-3.7a57.62,57.62,0,0,0-4.69-6.31c-1.28-1.52-2.6-3.05-3.78-4.66a28.48,28.48,0,0,1-.5,4.91c-.52,2.67-2.14,4.79-2.93,7.35-.52,1.68-.35,4.8,1.88,5.21.8.15.68.69.26,1l1.29-.25c1.37-.26.36.5-.38.63l-13.78,2.61c-4.45.84-8.65,1.81-12.2,4.78l-.64.55a.5.5,0,0,1,.32.56,35.33,35.33,0,0,0-.83,5.11c0,.58-.25,1.48.11,2s1.34.62,1.88.78l8.58,2.53a9,9,0,0,0-.09-3,3.78,3.78,0,0,0-.77-1.69c-.45-.54-1.12-.7-1.65-1.13-1.07-.87-1-2.88-.89-4.14a4.48,4.48,0,0,1,1.83-3.55,1.22,1.22,0,0,1,1.39-.1.66.66,0,0,1-.09,1.06c-1.13.74-1.22,2.21-1.19,3.45a4.09,4.09,0,0,0,.3,2c.33.49,1.12.66,1.57,1.05,2,1.72,1.76,4.75,1.41,7.09-.11.69-1,.91-1.53.74-3.66-1.08-7.35-2.06-11-3.24a2.64,2.64,0,0,1-1.69-1.23,4,4,0,0,1-.2-2.08,35,35,0,0,1,.58-4.2c-4.61,5.43-6.31,12.84-6.14,19.93,0,.5-1.92.77-1.93.52,0-.76,0-1.52,0-2.28a1.22,1.22,0,0,1-1.24.67,68.68,68.68,0,0,0-20.34-.66,61.87,61.87,0,0,0-17.25,4.42,22.55,22.55,0,0,0-11.62,11.16A30.81,30.81,0,0,0,266,226.49c.54.79-1.31,1.51-1.78.83a31.8,31.8,0,0,1-5.48-17.56,30.34,30.34,0,0,1,4.14-15.84,25,25,0,0,1,12.88-10.48,70.24,70.24,0,0,1,37.7-3.46.73.73,0,0,1,.57.33,32.68,32.68,0,0,1,1.75-9.69,23,23,0,0,1,12.57-13.8,53.93,53.93,0,0,1,10.78-2.66l9.38-1.78a4.19,4.19,0,0,1-3.13-3.77c-.29-2.46,1.16-4.61,2.16-6.74,1.27-2.72,1.41-5.71,1.49-8.66a26.29,26.29,0,0,0,0-2.66,17.64,17.64,0,0,1-1.81-4.6c-.2-.84,1.38-1.16,1.85-.67a7.5,7.5,0,0,1,1.88,4.69c1.77,3.18,4.36,5.93,6.67,8.76a48.92,48.92,0,0,1,4.79,7c1.09,1.93,2.73,4.38,1.83,6.65a10.52,10.52,0,0,1,4.34,3.28,32.3,32.3,0,0,1,4,5.55A33,33,0,0,1,376.82,174.35Z"/><path class="b5741657-e9e8-480e-bd36-d4759de758df" d="M368.7,185.07l1.87-.63a1.21,1.21,0,0,0,.63-.38.7.7,0,0,0,.15-.57.93.93,0,0,0-1.16-.45l-1.86.63a1.3,1.3,0,0,0-.63.39.7.7,0,0,0-.15.57.91.91,0,0,0,1.15.44Z"/><path class="b5741657-e9e8-480e-bd36-d4759de758df" d="M376.49,181.21l2.3-.28a2.09,2.09,0,0,0,.73-.24c.12-.07.35-.22.38-.38.07-.41-.58-.37-.82-.34l-2.3.27a1.92,1.92,0,0,0-.73.25c-.11.06-.35.22-.37.37-.07.41.58.38.81.35Z"/><path class="b5741657-e9e8-480e-bd36-d4759de758df" d="M365.44,170.36l2.93-1.52c.27-.14.57-.57.17-.75a1.62,1.62,0,0,0-1.37.18l-2.92,1.51c-.27.14-.58.58-.17.76a1.67,1.67,0,0,0,1.36-.18Z"/><path class="b5741657-e9e8-480e-bd36-d4759de758df" d="M342.33,180.67a19.12,19.12,0,0,1,7.46-4c.24-.06.94-.29.86-.65s-.88-.18-1.07-.13a22.27,22.27,0,0,0-8.76,4.61c-.28.24-.25.5.14.55a1.93,1.93,0,0,0,1.37-.37Z"/><path class="b5741657-e9e8-480e-bd36-d4759de758df" d="M354.79,150.25a2.17,2.17,0,0,0,1.37-.37c.18-.21.37-.39-.11-.39a2.13,2.13,0,0,0-1.36.36c-.19.21-.37.4.1.4Z"/><path class="b5741657-e9e8-480e-bd36-d4759de758df" d="M375.57,191.16a10.92,10.92,0,0,1,1.1.94c.16.16.47.39.33.65a1.54,1.54,0,0,1-.43.33,8.88,8.88,0,0,1-2.18,1.14,5.41,5.41,0,0,1-4.48-.37c-.33-.19-.91,0-1.24.13-.09,0-.86.36-.58.51,2.13,1.2,4.73.91,7,.12a13.22,13.22,0,0,0,3.17-1.63c.36-.25,1-.61.65-1.13a6.08,6.08,0,0,0-1.48-1.33c-.28-.21-.95,0-1.24.13-.11,0-.84.32-.58.51Z"/><path class="b5741657-e9e8-480e-bd36-d4759de758df" d="M295.49,164.53c-2.06,0-2.46-1.89-1.91-3.55a5.18,5.18,0,0,1,3.4-3.16,8.41,8.41,0,0,1,6,.12,11.81,11.81,0,0,1,2,1.23c.27.22-.33,1.11-1,.86-.54-.17-1.84-.49-2.1-.53a5.94,5.94,0,0,0-3.86.32c-.8.46-1.91,1.78-1.19,2.73.17.23.8.42.92.49.49.28.62.59.39.87a6.57,6.57,0,0,1-2.61.62Z"/><path class="b5741657-e9e8-480e-bd36-d4759de758df" d="M311.25,59.12h0Z"/><path class="b5741657-e9e8-480e-bd36-d4759de758df" d="M320.08,143.22s-1-3.61-8.5-9.51-18.5-15.08-5.5-19.51,30,6.4,29.33,13.61-4.5,11.15-8.17,13.12a21.09,21.09,0,0,1-7.16,2.29Z"/><path class="b5741657-e9e8-480e-bd36-d4759de758df" d="M86.42,223.38c-4-.44-7.41,2.79-10,5.34-4.3,4.18-6.14,9.3-7.07,15.13-.18,1.14,2.58.67,2.74-.32a29.72,29.72,0,0,1,3.48-10.66,16.5,16.5,0,0,1,1-1.49,1.45,1.45,0,0,0,.54-.21c3.34-2.2,6.76-4.25,9.91-6.71C87.7,223.92,87,223.44,86.42,223.38Z"/><path class="b5741657-e9e8-480e-bd36-d4759de758df" d="M98,213.57c2.66-4.14,4.29-7.67,4.75-12.55,0,0,0,0,0,0a26.47,26.47,0,0,1,11-10.94c1.16-.64-1.6-.31-2.08-.05-4.71,2.58-8.82,6-11.31,10.81-2.13,4.15-5.14,8.52-5.11,13.37C95.31,214.77,97.79,213.94,98,213.57Z"/><path class="b5741657-e9e8-480e-bd36-d4759de758df" d="M147,333.2v.2c0,.51-.72.9-1.43,1C146,334,146.5,333.61,147,333.2Z"/><path class="b5741657-e9e8-480e-bd36-d4759de758df" d="M344.3,77.3c-3.75,1.49-9.49,2.08-13.21.2-6-3-11.77-29.8-22-20.59-.72.64-3.43.55-2.22-.54,5.81-5.24,12.07-2.55,16.25,3.32a46,46,0,0,1,5.48,10.08c1,2.62,2.23,5.87,5.33,6.58,3.57.81,10.47,1.41,11.68-3.26,2-7.69-.87-15.79-5.15-22.15-1.49-2.21-2.81-4.85-4.78-6.68-3.19-2.94-6.86-2.3-10.8-1.91-1.37.13-2.75.14-4.12.32-4.12.54-5.69,2.31-7.87,5.53a27.58,27.58,0,0,1-5.41,6c-4.9,4.07-10.59,6.94-15.14,11.46a2.24,2.24,0,0,1-1.35.43,43.15,43.15,0,0,1,7.18,2.24q1.32.56,2.61,1.2c-.31.68-.6,1.37-.88,2.07a.07.07,0,0,0,0,.06c-7.5-3.79-15.93-4.79-24.29-5.06-9.78-.32-21,1.84-27.4,10-.73.92-3.34.63-2.27-.72A29.43,29.43,0,0,1,259,66.94c-.79-5.23-2.47-10.45-2.61-15.75-.05-1.56.41-4.07-.24-5.56-1.43-3.3-5.75-2.13-7.35.75-.36.66-2.84.78-2.69.52C248.34,43,254,40.76,258,43.41c2.14,1.44,1.05,6.65,1.31,8.71.57,4.69,1.76,9.27,2.46,13.95a35.75,35.75,0,0,1,4.24-.93c-.51-4.25-.89-8.94.36-13a16.05,16.05,0,0,1,3.23-6c1.26-1.5,3.68-2.71,3.75-4.94.22-7.2-4.21-10.32-10.87-10.55-6.5-.23-11.47.64-15.24,6.43a135,135,0,0,0-7.46,13.35c-1.4,2.79-3.6,7.76-1.82,10.81,2.62,4.48,8.07,1,9.31-2.83.51-1.55,1-3.1,1.64-4.59a8.08,8.08,0,0,1,4.82-4.43c1.2-.47,2.85.36,1.06,1.06-5.41,2.1-3.48,9.86-8.05,12.78-2.57,1.65-8.2,2.82-10.55.11-2.91-3.34-1.05-8.44.56-12,2.51-5.5,5.61-11.94,9.57-16.53,5.76-6.66,18.06-7.77,25.78-3.83,4,2.05,5.56,9.8,2.31,13-6.15,6-6.55,12.74-5.61,20.86l.46,0A82.72,82.72,0,0,1,290,65.88c-.19-.16-.19-.41.16-.76,6.29-6.24,15.15-9.59,20.2-17,3.75-5.54,7.41-6.62,13.83-7.26,5.45-.54,11.22-1.56,15,3.38,4.24,5.57,8.66,12.12,9.54,19.23C349.27,68.12,349.69,75.17,344.3,77.3Z"/><path class="b5741657-e9e8-480e-bd36-d4759de758df" d="M278.69,99.34c1.35-.24,2.72-.53,4.1-.81.09.17.34.29.79.29a87.06,87.06,0,0,0,13-.67A1.87,1.87,0,0,0,297,98l.45.13c.71.22,3.18-.89,2.22-1.19-.6-.18-1.19-.32-1.79-.45-.15-.19-.47-.3-1-.22l-.11,0a35,35,0,0,0-11.71.65h-.49a1.75,1.75,0,0,0-.86.26c-1.53.29-3.06.61-4.58.88C278,98.31,276.78,99.69,278.69,99.34Z"/><path class="b5741657-e9e8-480e-bd36-d4759de758df" d="M322.32,113.81c-3.25-3.35-4.83-8.35-5.86-13.24a2.4,2.4,0,0,1-.7.46,1.94,1.94,0,0,1-1.77,0l-.29-.2a1.91,1.91,0,0,1-1.52.09,13.19,13.19,0,0,0-3.89-1.71,1.06,1.06,0,0,1-.15.15,2.54,2.54,0,0,1-1.9.51,5.53,5.53,0,0,1-1.27-.27,1.33,1.33,0,0,1-.73-1c-.13-.65,1.15-1,1.54-1l.84-.13a1.63,1.63,0,0,1,.45-.08c.25,0,.5,0,.74,0a14.32,14.32,0,0,1,8.52,2.6c-.43-2.11-.76-4.17-1.08-6.06-1.55-9-5.68-16.79-13.87-21.43-.26-.15-.53-.3-.8-.43s-.74-.08-.67-.36a.07.07,0,0,1,0-.06c.28-.7.57-1.39.88-2.07s.63-1.37,1-2c1.47-2.87,3.26-5.88,5.9-7.83,2.81-2.08,6.48-2.52,9.33-.31.43.33-.57.81-.77.89-.46.18-1.31.43-1.75.08a5.71,5.71,0,0,0-2.14-1.12,4,4,0,0,0-.71-.1h-.31l-.08,0H311a.94.94,0,0,1-.15.06,2,2,0,0,0-.24.11,4.65,4.65,0,0,0-.62.38,9.17,9.17,0,0,0-1.42,1.21A20.41,20.41,0,0,0,306,64.38a42.86,42.86,0,0,0-3.14,6.24c5.67,3.22,10.57,7.85,13,14.07,3.35,8.66,2.16,20.84,9.06,27.94C325.74,113.56,323.14,114.65,322.32,113.81Z"/><path class="b5741657-e9e8-480e-bd36-d4759de758df" d="M216.7,98a94.53,94.53,0,0,0-2.34,18.5c0,1.33,2.75.85,2.76-.26a94.53,94.53,0,0,1,2.34-18.5C219.72,96.51,216.93,96.9,216.7,98Z"/><path class="b5741657-e9e8-480e-bd36-d4759de758df" d="M214.24,305a20.52,20.52,0,0,0-6.16,9.82,9.65,9.65,0,0,0-.37,2.19c0,1,.11,1.13,0,1.47a21,21,0,0,1,1-2c.54-.89,3.32-1,2.58.19-.9,1.46-1.32,3.62-3.17,4.21a2.22,2.22,0,0,1-3.08-2.11c-.53-5.37,3.19-10.89,7-14.39C212.77,303.61,215.46,303.82,214.24,305Z"/><path class="b5741657-e9e8-480e-bd36-d4759de758df" d="M225.63,357.18a74.87,74.87,0,0,0-23.54,4.14c-4.5,1.59-8.48,4.22-12.7,6.39S180.48,371.94,176,374c-5.36,2.45-12.28,4.73-17.11.08-4.21-4.06-3.79-10.51-.31-14.73,4.37-5.3,11.72-5.82,18-5.77,5.61,0,11.25-.42,16.85-.09,1.12.07,2.89-1.56,1-1.67-6.77-.4-13.64,0-20.42.1a27.8,27.8,0,0,0-13.37,3.41c-7.43,4-11.11,15-3.28,20.85,8.25,6.16,19.55-.93,27.36-4.52,5.72-2.63,11.11-6,16.89-8.47,7.15-3.07,15.19-4.14,22.91-4.32C225.69,358.82,227.48,357.13,225.63,357.18Z"/><path class="b5741657-e9e8-480e-bd36-d4759de758df" d="M136.12,122.21c.17-10-.92-21.95-.87-28.15,0-2.33-.26-5.81-.37-9.19l-.27.1c0,3.31,0,6.75.19,10.35.28,5.91.41,11.93.55,17.75.23,10.27.47,20.89,1.49,31.3.27,2.71.54,5.46.82,8.23C136.79,141.93,136,129.41,136.12,122.21Z"/><path class="b5741657-e9e8-480e-bd36-d4759de758df" d="M249.28,294.83c-.41.34-.34.82.24.88,3.46.37,8.4,3.43,8.48,7.3,0,.77,2.76.26,2.74-.74-.09-4.29-5.74-7.55-9.52-8A2.7,2.7,0,0,0,249.28,294.83Z"/><path class="b5741657-e9e8-480e-bd36-d4759de758df" d="M271.5,313.26c.34,1.06,3.07.29,2.74-.74-1.55-4.78-6.34-7.61-11.23-7.61-1.13,0-2.88,1.7-1,1.7A9.9,9.9,0,0,1,271.5,313.26Z"/><path class="b5741657-e9e8-480e-bd36-d4759de758df" d="M327.1,348.31a1.91,1.91,0,0,1-1.88.88,7.57,7.57,0,0,1-5.86-4.24,11.41,11.41,0,0,1-1.13-4.19,2.91,2.91,0,0,1-1.32.17,46.57,46.57,0,0,1-7.86-1.58,9.78,9.78,0,0,1-.16,2.64,8.51,8.51,0,0,1-5,6.19c-.42.18-1.54.47-1.91,0s.42-.94.79-1.1c2-.86,3.11-3.26,3.37-5.33.37-2.87-.75-5.74-2.11-8.21-.4-.74,2.39-1.71,2.9-.78a18.84,18.84,0,0,1,1.81,4.43,42.72,42.72,0,0,0,9.45,2.28,32.51,32.51,0,0,1,.08-3.28c.08-1.3,3-1.71,2.94-.23-.16,2.55-.26,5.25.82,7.63a5.67,5.67,0,0,0,4.23,3.51C326.83,347.17,327.41,347.66,327.1,348.31Z"/><path class="b5741657-e9e8-480e-bd36-d4759de758df" d="M310.33,360.51c.06.22-.15.47-.3.58a62.27,62.27,0,0,0-6.85,6.1,2.49,2.49,0,0,1-1.4.72,1.12,1.12,0,0,1-.53.72,2.12,2.12,0,0,1-2.06.23l-9.9-6.58c-.57-.38-.24-.94.23-1.25a2.15,2.15,0,0,1,2.06-.24l8.06,5.36a49.77,49.77,0,0,0-.29-15c-.24-1.33,2.67-2.06,2.89-.77a51.6,51.6,0,0,1,.44,14.68,61.15,61.15,0,0,1,5.05-4.34,2.89,2.89,0,0,1,2-.55C310,360.18,310.27,360.29,310.33,360.51Z"/><path class="b5741657-e9e8-480e-bd36-d4759de758df" d="M331.45,138.46C327.13,149,316.8,158.77,307.7,165.4c-5.77,4.21-12.16,5.6-19.19,5.45-8.09-.17-11.31-7.68-16.5-12.53a2,2,0,0,0-2,0c1-3.1,1.94-6.25,2.67-9.46,2.09-9.2,1.85-18.59,1.35-27.95-.53-9.9-2.54-19.49-7.68-28-8.28-13.8-27.57-14.34-34.71-29.12-.35-.71-3,.23-2.74.73,6.9,14.3,24.91,15.28,33.77,27.68,5.79,8.1,7.74,18.13,8.52,27.85.87,10.95.67,21.79-2,32.48-4.7,19.07-15.25,36.11-20.41,55.05-5.53,20.33-7.81,42.6-5,63.54A12.25,12.25,0,0,0,242,272a11.37,11.37,0,0,0-1.26-3.91c-2.14-3.84-5.83-5.39-9.61-7.27a12,12,0,0,0-4-11.74c-4.25-3.53-8.7-3.27-12.63-1.12a.75.75,0,0,0,.33-.57c.17-35,1.15-70,1.17-105,0-.75-2.74-.26-2.74.73,0,35-1,70-1.17,105,0,.46,1.08.45,1.88.13a22,22,0,0,0-5.14,4.37c-1.28-.19-2.53-.39-3.79-.47a2.57,2.57,0,0,0,.77-.57,1.34,1.34,0,0,0,.3-1.35l-1.3-3.88c-2.68-8.07-5.46-16.4-9.77-24a70.56,70.56,0,0,0-7.65-10.79l-.5-.6c-1.34-14.11-5.66-27.49-9.83-40.43-2.06-6.39-4.19-13-5.94-19.62-2.64-10-3.25-18.74-1.86-26.84,1.59-9.33,6.48-18.73,14.95-28.72,4.82-5.68,10.58-10.43,16.16-15,4.08-3.36,8.31-6.84,12.16-10.68s4.74-9.26,4.94-13.9c.33-7.67-.95-15.42-2.19-22.92l-.31-1.91c-.5-3.09-1-6.19-1.57-9.29.31,1.2.63,2.39.93,3.57.62,2.36,1.21,4.74,1.81,7.11,1.13,4.5,2.29,9.16,3.61,13.71.76,2.65,1.42,5.41,2.05,8.08a112.58,112.58,0,0,0,3.7,13.16l1.88-.7a109.09,109.09,0,0,1-3.63-12.92c-.64-2.69-1.31-5.48-2.08-8.18-1.3-4.51-2.47-9.15-3.59-13.64-.6-2.38-1.19-4.75-1.81-7.13-2-7.78-4.25-16.15-6.74-24.62l-1.94.45q.72,4.06,1.46,8.11c1.33,7.4,2.72,15.06,3.95,22.61l.31,1.91c1.22,7.4,2.48,15.05,2.16,22.51-.19,4.26-.85,9.08-4.35,12.57-3.79,3.78-8,7.23-12,10.56-5.64,4.65-11.47,9.45-16.4,15.27-8.71,10.27-13.75,20-15.41,29.67-1.43,8.39-.81,17.45,1.9,27.69,1.77,6.68,3.91,13.31,6,19.72,4.16,12.88,8.45,26.19,9.76,40.16v0l.06.46.2.23c.55.64,1.09,1.28,1.59,1.91a67.17,67.17,0,0,1,6.55,9.4c4.22,7.47,7,15.72,9.62,23.69.37,1.14.76,2.28,1.14,3.42a3.06,3.06,0,0,1-.8.21c-.49-1.43-1-2.88-1.44-4.32-3-9-6-18.25-11.39-26.32a64.92,64.92,0,0,0-3.91-5.21c-2.6-3.17-5.42-6.11-8.18-9-3-3.18-6.21-6.47-9-10C159.34,183.18,153,167,149.83,146.23c-5.58-36.92-8.91-74.81,16.46-96.67a2.74,2.74,0,0,1,1-.2l1,0,0-.89a1.21,1.21,0,0,1,.8-.49c4.34.07,7.53-.93,9.52-3a8.5,8.5,0,0,0,2.25-6.5c-.13-4.45-1.62-7.51-4.44-9.08-5.41-3-13.44-3.29-18.66-.63-8.75,4.45-15.23,13.91-19.27,28.09A106.74,106.74,0,0,0,134.61,85l.27-.1c.11,3.38.38,6.86.37,9.19-.05,6.2,1,18.11.87,28.15-.13,7.2.67,19.72,1.54,30.39a.49.49,0,0,0,0,.12c.14,1.44.29,2.89.43,4.35.36,3.6.74,7.21,1.12,10.82l.2,1.81c.53,4.78,1.08,9.73.31,14.35a22.93,22.93,0,0,1-2.08,6.39,21.28,21.28,0,0,0-2.29-2.94,22.76,22.76,0,0,0-5.8-6.94c1.41-3.57,1.29-7.74.63-11.75a17.36,17.36,0,0,0-1.64-7.34c0-.07,0-.13-.05-.2-2.22-8.37-9.7-11.48-14.18-18.28-.45-.69-1.92-.06-2.43.26-3.28,2.08-5.17,6-6.61,9.84a.08.08,0,0,0,0,0c-1.64,3.43-2.8,6.5-2.83,6.57-1.18,3.17-3.08,10.06-4.46,15.24-.31.81-.6,1.63-.87,2.45-1,.65-2.1,1.3-3.17,1.93h0c-3.68,1.56-9.91,4.47-13.62,7.72-1.1,1-2.14,1.9-3.13,2.8a49.81,49.81,0,0,0-8.63,8.05c-7.16,8.65-10.53,18.84-11.31,29.73l-.09,0a9.06,9.06,0,0,0-3.58,1c-1.32.66-3,1.49-4.93,2.39-4.71,2.27-10.56,5.09-13.24,6.79-.33.21-.64.42-.94.64l-.17.09c-2.39,1.36-4.94,2.78-4.39,4.58l-.4.69,1.05.43.1,0h0a6.22,6.22,0,0,0,1.13.92,78.14,78.14,0,0,0,8.15,4.61,23.26,23.26,0,0,0-3.74,2.73c-5.27,4.72-7.92,11.56-9.09,18.39a.21.21,0,0,0,.06.2c-3.95,4.48-7.94,8.94-12.17,13.16q-3.25,3.25-6.73,6.26l-.36.31Q6,292.51,4.13,294A16.41,16.41,0,0,0,1,296.76a3.68,3.68,0,0,0,1,5.74c2,1.17,4.23.87,6.32.19.69-.21,1.35-.48,2-.74,5.83-2.47,11.75-4.88,17.4-7.74a43,43,0,0,0,13.23-9.61,21.56,21.56,0,0,0,20.87-3.19,17.85,17.85,0,0,1,10.52,11.44,28.88,28.88,0,0,0-8.56,13.33c-2.14,6.57-2.52,14.05.17,20.52a29.29,29.29,0,0,0,13.76,14.55,33,33,0,0,0,9.66,3.19,28.74,28.74,0,0,0,5.38.36.13.13,0,0,0,0,.06l-.42,21.48c-.06,3-.11,5.9-.17,8.85-.07,3.47-.13,6.94-.2,10.41a1.41,1.41,0,0,0-.64.5,9.41,9.41,0,0,1-5,3.9,15.25,15.25,0,0,1-8,.09,2.68,2.68,0,0,0-1.82.38c-.46-.15-.93-.28-1.41-.4a2.47,2.47,0,0,0-2,.55c-.45.43-.33.86.27,1A26.6,26.6,0,0,1,89.9,404.76a1,1,0,0,0,.9.41h0a.55.55,0,0,0,.19.65h0a1.32,1.32,0,0,0,.72.31,2.09,2.09,0,0,0,1.9-.85,59.52,59.52,0,0,1,8.37-9.7,66.66,66.66,0,0,0,5.07-4.87h.09c.57,0,1.53-.42,1.62-1.08a.58.58,0,0,0-.39-.64,12,12,0,0,0,1.13-2.09c.61-1.46-2.3-1.32-2.75-.24a12.28,12.28,0,0,1-1.22,2.19,19.11,19.11,0,0,1-10.83-4.12c.06-3.28.13-6.55.19-9.82.06-2.86.11-5.71.16-8.57l.42-21.69c1-.08,2.09-.18,3.15-.28,7.51-.76,15-1.37,22.55-2.2l.73-.08c.05,1.39,0,2.75,0,4.09a21.78,21.78,0,0,1-1.26,7.17c-.15.34-.31.7-.48,1s-.3.65-.46,1l-.26.52v0l-.1.19c-.23.48-.46,1-.67,1.49a10.69,10.69,0,0,0-1.06,4.94,1.14,1.14,0,0,1-.77.35,13.06,13.06,0,0,1,1.54-5.68.3.3,0,0,0,0-.08l.31-.68-1.2-1.06a39.13,39.13,0,0,0-3.48-2.86l-.11-.08a13.36,13.36,0,0,0-2.37-1.35h0a7.64,7.64,0,0,0-3.56-.73A7.1,7.1,0,0,0,103.1,353a14.88,14.88,0,0,0-3,5.37,19.19,19.19,0,0,0-.75,3.81,21.87,21.87,0,0,0-.08,3.11.08.08,0,0,0,0,0c0,.34,0,.67.07,1a12,12,0,0,0,2.91,7.09c2,2.16,4.82,3.25,8.42,3.25h.21a24.72,24.72,0,0,0,11.15-2.33l10.7,6.87a1.34,1.34,0,0,0,.27.13v.31c0,.6,2.89.15,2.89-.77v-.31a.93.93,0,0,0,.13-.15,100.59,100.59,0,0,1,17.09-18.31c1.51-1.25-.8-2.27-1.92-1.33q-2.75,2.28-5.32,4.75l.16-.29-.21-.1a2.69,2.69,0,0,0-1.2-.13l-1.06.09c-2.23.21-4.4.4-6.55.74l-.36-.15a1.48,1.48,0,0,0-.76-.1V339.82a.16.16,0,0,0-.08-.14,28.36,28.36,0,0,0,3.94-1.57,31,31,0,0,0,5.73-3.71c.49-.38,1-.79,1.43-1.2,1-.89,2-1.83,2.91-2.79,5.59-5.82,9.51-13.52,8.65-21.77a18.8,18.8,0,0,0-1.67-6.05c-.54-1.18-3.4-.32-2.9.78,3.4,7.33,1.5,15.68-3,22.1a34.81,34.81,0,0,1-4,4.79,35.64,35.64,0,0,1-2.73,2.49c-.44.37-.89.73-1.34,1.08a26.84,26.84,0,0,1-11,5,71.12,71.12,0,0,1-8,1.14l-2,.19-.61.06-2,.19-13.44,1.35c-4.14.42-8.36,1.11-12.52,1.17a28.55,28.55,0,0,1-9.38-1.53A29.22,29.22,0,0,1,69,330.12a26,26,0,0,1-3.72-18.65c1-6.42,3.81-13.41,8.92-17.65l.34-.27c.47-.18.83-.41.83-.63a33.37,33.37,0,0,1,9-4.07,120.92,120.92,0,0,1,12.43-3.29q2.77-.58,5.58-1l.64-.1,1.33-.2A119.91,119.91,0,0,1,122.51,283a112.9,112.9,0,0,1,12.46.75,32.44,32.44,0,0,1,7.47,1.67,17.66,17.66,0,0,1,2.5,1.15l.33.19a13.82,13.82,0,0,1,3.53,3,1.57,1.57,0,0,0,1.59.25,22.48,22.48,0,0,1-4.85,3.05,23.08,23.08,0,0,1-2.76,1.06,22.14,22.14,0,0,1-11.95.37c-.77-.19-2.29.93-1.14,1.22a25.17,25.17,0,0,0,13.15-.29,24.45,24.45,0,0,0,2.76-1,24.71,24.71,0,0,0,7.62-5,4.07,4.07,0,0,1-1.09,2,38,38,0,0,1-3.76,3.08c-.88.66-1.77,1.29-2.68,1.9s-1.8,1.18-2.72,1.73-1.85,1.07-2.79,1.57c-.55.29-.84,1.16.07,1.17s1.9,0,2.84-.1,1.86-.16,2.79-.29a39.45,39.45,0,0,0,12.51-3.95c-2.94,4.44-7.37,6.81-12.32,8-.91.22-1.83.39-2.77.54a75.23,75.23,0,0,1-16.34.16c-.88-.06-2,1.21-.69,1.31,5.64.41,11.48.83,17.09-.09.93-.15,1.86-.34,2.77-.57.64-.16,1.28-.34,1.91-.55,5.54-1.8,10.68-5.28,13.32-10.61.46-.93-1.16-.71-1.55-.47a36,36,0,0,1-14,5c-.85.11-1.71.2-2.57.25.85-.49,1.69-1,2.51-1.53q2.42-1.53,4.68-3.29l0,0a4.44,4.44,0,0,1,1,2.59c0,.16.44.17.5.17a3.77,3.77,0,0,0,1.05-.16,3.59,3.59,0,0,0,1-.39c.14-.09.35-.2.35-.39a4.48,4.48,0,0,0-1.91-3.45,7.11,7.11,0,0,0,2.46-2.93c.4-1.09.26-2.2-1-2.56a1.4,1.4,0,0,0-1.36.36c-.3.33-.61.64-.93,1a.7.7,0,0,0-.17-.4,16.52,16.52,0,0,0-6.3-4.53c0-1.44-.09-2.88-.13-4.32-.39-14-1-28.78,2-42.59.8,6.13-.15,12-1.85,18.3-.3,1.1,2.47.7,2.75-.3,2.25-8.32,3.19-15.85.66-24.22-.33-1.08-2.5-.28-2.75.52-4.61,15-3.93,31.4-3.63,46.9,0,1.57.07,3.15.12,4.72a56.71,56.71,0,0,0-11.8-1.68A124.86,124.86,0,0,0,104,282.39a103.22,103.22,0,0,1-.4-35c2-12.07,8.08-24.14,18.21-35.84,2-2.26,4.16-4.41,6.31-6.49,5.94-5.78,12.08-11.75,13.58-20.72.82-4.9.26-10-.29-14.9l-.2-1.8c-.84-7.88-1.62-15.83-2.38-23.51-1-10.33-1.25-20.92-1.48-31.15-.14-5.83-.28-11.86-.55-17.79-.7-14.79.44-26.81,3.57-37.82,3.88-13.63,10-22.67,18.26-26.86,4.6-2.35,12-2.08,16.78.6,2.15,1.2,3.3,3.69,3.41,7.38a6.62,6.62,0,0,1-1.67,5c-1.57,1.59-4.35,2.41-8.07,2.35a3.1,3.1,0,0,0-2.15,1,2.87,2.87,0,0,0-.42.53A3.18,3.18,0,0,0,165,48c-28.37,24.45-21.36,70.82-17.17,98.52,3.19,21.1,9.69,37.61,19.86,50.46,2.85,3.6,6,6.93,9.13,10.14s6.17,6.44,9,10c1,1.28,2,2.59,2.88,4,5.24,7.84,8.25,17,11.16,25.84.52,1.56,1,3.13,1.56,4.69a1.36,1.36,0,0,0,.45.63,10.31,10.31,0,0,0-1.3.26,16.59,16.59,0,0,0-7.62,4.44c-3.25,3.47-3.89,9.76-1.55,13.89a8.15,8.15,0,0,0,5.05,3.86c-2.87,3.08-5.49,6.79-5.77,10.7a2.91,2.91,0,0,0-1.26.22c-12.3,6.67-12.93,20.91-11.41,33.16,1.76,14.28,8.95,25.84,20.32,34.53.69.52,3.17-.55,2.56-1-9.74-7.44-16.77-17.21-19.4-29.29s-3.32-29.39,9.17-36.54a9.69,9.69,0,0,0,1.81,5.16c2.87,4.16,9.14,1.8,13,0-.3,3.67.56,7.35,4.17,8.19,6.48,1.5,12-3.72,15.47-8.8a13.75,13.75,0,0,0,11-4.18c20.85,10.21,13.11,38.23,5.29,54.76,0,0,0,0,0,0A45.54,45.54,0,0,0,223,348.37c-1.13.71,1.62.34,2.09,0a40.18,40.18,0,0,1,17-5.7,2.17,2.17,0,0,0,1.15-.08c9-.52,17.51,2.63,20.22,12.47.91,3.31,1.13,9.14-4,9.28-3.2.08-6.63-1.14-9.75-1.67a91.7,91.7,0,0,0-20.87-.85c-.7,0-3,1.17-1.2,1.06a94.38,94.38,0,0,1,21.63,1.13c3.33.56,6.8,1.82,10.22,1.32,7.45-1.08,8.07-7.24,5.85-13.63-2.57-7.38-11-10.16-18.21-10.39-.94,0-1.87,0-2.81,0a97.94,97.94,0,0,0,4.19-10.49c5.16,3,10.85,2.36,16-.16a3.1,3.1,0,0,0,1.62,2.87,21.81,21.81,0,0,0,4.57,2.25,40.24,40.24,0,0,0,10,2.56,2.84,2.84,0,0,0,.77,0c0,3.22.39,6.36,2.38,9.21a14.34,14.34,0,0,0,12.95,5.85c.47,0,1.57-.36,1.66-.94s-.86-.57-1.23-.54c-4.53.36-9.1-2.54-11.27-6.42-2.77-4.93-1.12-10.81-1.57-16.16-.07-.85-3-.26-2.9.78a65.79,65.79,0,0,1,0,6.88,38.3,38.3,0,0,1-7.7-2.08,30.43,30.43,0,0,1-4.26-2c-1.08-.62-2.53-1.78-2-3.19.12-.32-.34-.35-.72-.32a34.44,34.44,0,0,0,12.36-13.32c3.76-7.56,3.36-16.21.19-23.84.38-.16.66-.39.67-.64.29-5.86,6.61-10.93,11.66-13,1.79-.72.12-1.4-1-.93-4.72,1.9-10.76,6.11-12.71,11.34a43.89,43.89,0,0,0-4.31-7.54,2,2,0,0,0,.73-.25c4.7-3.38,7.85-8.56,11.66-12.84,3.53-3.95,8.45-7.65,13.65-4.05,3.26,2.25,5.39,6.74,6.42,10.46,1.38,5,.91,10.52,1.89,15.63s3.82,9.92,5.61,14.87c2.42,6.7,5.12,19.92.42,26.25-3.92,5.29-6.13-4.19-6.48-6.29-.66-4-1.58-8-2.47-11.93A98.2,98.2,0,0,0,300.28,298c-1.91-4.68-5.09-8.42-3.72-13.79,1.52-6,3.73-13.69-4.64-14.53-5.35-.53-7.88,3.91-7.87,8.72,0,.64,2.73.19,2.73-.73,0-4,2.71-8.68,7.37-5.27,2.28,1.65,1.15,6.12.7,8.32-1,4.87-2.06,7.73,0,12.55a134,134,0,0,1,9.62,31.08c.83,4.85,1.57,10.95,7.88,9.64,6.07-1.26,6.71-8.16,6.54-13.25a67.78,67.78,0,0,0-2.62-16.07c-1.59-5.73-4.79-10.67-5.93-16.6-1.76-9.14-.35-19.22-9.07-25.26-4.16-2.88-10-.72-13.62,1.85-6,4.24-9.11,11.44-14.84,15.92a15.53,15.53,0,0,0-8.66-5.77s0-.06,0-.1c.6-4.76,1.29-9.53,2.3-14.22A72.48,72.48,0,0,1,271,247.07c1.35-3.11,2.57-7.65,5.91-9.21,1.74-.81.12-1.48-1-1-6.35,3-8.78,12.85-10.73,18.87-1.84,5.69-2.64,11.66-3.45,17.55-.65,4.73-2,10.22-.68,14.93.23.84,3,.1,2.74-.74-.95-3.48-.34-7.32.18-10.94,4.61,1.85,7.43,6.22,9.77,10.58,3,5.51,5.35,11,5.44,17.35.18,12.77-14.6,34.89-29.22,24.64a1.18,1.18,0,0,0-.8-.09c5.09-16.44,5.75-35.68-11.27-44.1a22.94,22.94,0,0,0,3.33-5.72,14.16,14.16,0,0,0,1-4.66l.24-.26h0c.13-.11.26-.23.4-.33l.22-.17.11-.07.2-.12.31-.18c.37-.2.76-.36,1.14-.53h0l0,0,.31-.1.69-.21c.41-.12.84-.21,1.26-.29h.08l.37,0,.62-.05h.76l.16,0,.14,0a81.82,81.82,0,0,0-2.47,13.06c0,.33,2.66.07,2.74-.74.82-8.48,3.83-17.49,6.56-25.53a244.49,244.49,0,0,1,9.55-22.89,124.32,124.32,0,0,1,10.71-18.85c4.56-6.59,12.52-2.52,15.74,2.56a27.84,27.84,0,0,1,3.54,10.37,72,72,0,0,1,.92,10.36c.12,4.93-2.73,14.52-10.33,10.68-4.32-2.18-3.36-12.71-3.56-16.69-.18-3.75-1.5-8-6.15-7.14a6.09,6.09,0,0,0-5.09,7.62c.12.56,2.87-.11,2.74-.74-.33-1.51-.24-7.71,4-5,1.4.91,1.56,3.4,1.72,4.86.39,3.46.35,7,.68,10.44.58,6.14,3.36,9.23,9.48,8.11a10.82,10.82,0,0,0,9.12-10c.76-8.72-.54-19.3-6.17-26.28-2.9-3.59-9.93-5-14.13-3.06-5.85,2.74-9,10.12-12,15.46-4.8,8.6-8.56,17.95-12.15,27.11-1.74,4.44-3.44,9.25-4.84,14.14a11.17,11.17,0,0,0-3.26.2c-2.88-21.48-.29-43.95,5.39-64.78,4.33-15.89,12.41-30.42,17.68-46,4.82,4.57,7.77,10.84,14.58,12.66,5.92,1.57,13.25.2,18.8-2.06,6.44-2.62,11.76-7.76,16.64-12.56,5.49-5.4,11.46-11.73,14.42-19C334.6,137.28,331.86,137.47,331.45,138.46ZM91.77,390.1c-.07,3.8-.1,7.61-.48,11.39a27.88,27.88,0,0,0-10.87-9.43c4.1.14,8.36-.84,11.38-3.51Zm44.17-22.51c.35.11.71.2,1.07.28a16.46,16.46,0,0,0,6.37.17,101.28,101.28,0,0,0-7.44,8.47Zm-2.89,10.69-8.43-5.42-1.87-1.2,0,0h.06a25.83,25.83,0,0,0,10.27-1.35Zm0-9.23a19.93,19.93,0,0,1-3.53,1,25,25,0,0,1,3.53-1.29Zm-9.14-22.75a43.64,43.64,0,0,0,0-4.44l3.33-.41a54.12,54.12,0,0,0,5.8-1,.35.35,0,0,0,0,.17v26.07a27.51,27.51,0,0,0-5,1.86,36.45,36.45,0,0,0-3.21,1.84,20.72,20.72,0,0,1-3-.37,3,3,0,0,0-1.47.1l-2.56-1.64a1.9,1.9,0,0,0-2.08.17c-.47.36-.78,1.1-.16,1.5l4.56,2.93a24,24,0,0,1-9.17,1.62c-3.1,0-5.51-.84-7.14-2.61-2-2.12-2.78-5.47-2.39-9.69a14.23,14.23,0,0,1,3.23-8.05,5.12,5.12,0,0,1,3.53-2c2.81-.2,5.86,2.55,8.08,4.54l.1.08a13.28,13.28,0,0,0-1.44,6.36,1.79,1.79,0,0,0,2.1,1.56c1.34-.09,2.73-1.05,2.63-2.43a11.34,11.34,0,0,1,1.49-5.36,1.53,1.53,0,0,0,.35-.74l.06-.11c.35-.72.69-1.43,1-2.12A23.31,23.31,0,0,0,123.91,346.3Zm-29.26,44c0-.84,0-1.69,0-2.53a21.53,21.53,0,0,0,9.4,2.9c-1.53,1.64-3.32,3.07-4.93,4.61a60.79,60.79,0,0,0-5,5.41C94.52,397.26,94.58,393.79,94.65,390.32ZM89.5,285.39a68.67,68.67,0,0,0-12.34,4.25A24,24,0,0,0,74.77,291a18.4,18.4,0,0,0-11.35-10.91l-.11,0a20.07,20.07,0,0,0,5.33-8.57c.35-1.11-2.57-.73-2.91.32a18.13,18.13,0,0,1-8.58,10.56,17.16,17.16,0,0,1-14.81.43l.09-.12c.42-.58-.36-.91-.81-1a2.28,2.28,0,0,0-1.91.82c-6.27,8.53-17.06,12.21-26.4,16.26-1.42.61-2.84,1.24-4.26,1.84l-.8.33a5,5,0,0,1-3.17.45,2.88,2.88,0,0,1-2.22-2.59c0-1.27,1.05-2.25,2-3C6,294.9,7.1,294,8.25,293.1s2-1.62,3-2.48c2.14-1.87,4.21-3.83,6.23-5.85,4.56-4.57,8.84-9.41,13.12-14.26.57-.64.17-1-.46-1.07,1-5.3,3-10.57,6.49-14.74a20.34,20.34,0,0,1,4.69-4.12,17.23,17.23,0,0,1,1.56-.88c.35-.17.7-.33,1.06-.47a14.45,14.45,0,0,1,7.21-1c5.18.58,9.84,3.41,13.93,6.57l1.21.94c.42.33.83.67,1.24,1h0l.21.2,0,0c2,1.66,3.92,3.39,5.83,5.16,1.72,1.58,3.4,3.2,5.08,4.82l1.42,1.37Q88,275.89,95.4,284C93.42,284.38,91.46,284.86,89.5,285.39Zm8.81-2a.23.23,0,0,0,0-.26q-6.3-6.88-13-13.41A20.17,20.17,0,0,0,92,271.15h.37c2.3-.09,6.36-.28,8.16-.44a96.42,96.42,0,0,0,1.5,12C100.79,282.89,99.55,283.12,98.31,283.35ZM128,201.22c-9.68,9.66-17.19,18.4-22.4,29.63-4.22,9.11-6.16,19.64-6.11,33.14,0,1.48,0,3,.09,4.49a16.42,16.42,0,0,1-1.65.39h0c-1.46.09-3.23.17-4.79.24A30.36,30.36,0,0,1,80.7,265l-.36-.21A151.17,151.17,0,0,0,68.19,254l-1-.79c-.47-.62-.91-1.24-1.33-1.88-.23-.35-.93-.3-1.55-.11A25.78,25.78,0,0,0,52,246.84a20.79,20.79,0,0,0-9.2,1.59,69.45,69.45,0,0,0-9.91-5.25,2,2,0,0,1-.29-.39,17,17,0,0,1,3.82-3.22c2.58-1.64,8.38-4.43,13-6.67,1.89-.91,3.62-1.75,4.95-2.41a7.05,7.05,0,0,1,2.68-.82c0,1-.08,1.93-.08,2.91,0,1.19,2.74.62,2.75-.33,0-1.35,0-2.68.12-4a13.42,13.42,0,0,0,.34-2.79c.32-5.17,4.3-17.08,6.87-21.56,1.94-3.4,6.33-8.12,13.43-14.39,3.6-2.56,7.45-4.82,11.27-7.06h0c1.78-.83,3.35-1.49,4.4-1.91v.24a14.31,14.31,0,0,0-.22,1.6c0,.1.08.16.22.21v7.21l1.89-7.5c.35-.17.61-.39.63-.66a18,18,0,0,1,.78-3.82c.33-.27.36-.49.22-.65.67-2,1.53-4,2.18-6,1.33-4,2.46-8,3.74-12,.7-2.17,1.48-4.84,2.51-7.42,1.84-3.48,3.57-6,4.36-6l.38.37a39.09,39.09,0,0,0,3.53,3.1,68.32,68.32,0,0,1,5.58,5.58,18.37,18.37,0,0,1,2.22,3.26,14.35,14.35,0,0,1,1.2,2.86,50.94,50.94,0,0,1,2.46,12.76,43.47,43.47,0,0,1-1.63,7.36l-.3,1,.34.11c-.14.27-.28.53-.44.79s1.19.35,2.08,0a16.28,16.28,0,0,1,2.85,2.62l.75.82a27.3,27.3,0,0,1,3.25,6.36.81.81,0,0,0,.32.4A58,58,0,0,1,128,201.22ZM225,288.92c-.89-.17-1.85.63-1.81,1.26-2.66,4.11-10,12.86-14,6.3-2-3.33-.83-8.68.83-11.92.32-.62-2.32-.37-2.72.41a18.48,18.48,0,0,0-1.54,4.76,2.16,2.16,0,0,0-.41.13c-4.16,2-9.16,4.06-11.39-1.48-2.09-5.19,1.72-10.06,5.25-13.68h0a2.09,2.09,0,0,0,.49-.28c.25-.19.33-.36.26-.48l.43-.42c1.18-1.16-1.51-1.27-2.23-.57l-.31.31c-4.37-1.78-5.61-7.36-4.63-11.77a10.18,10.18,0,0,1,5.22-6.94,8.41,8.41,0,0,1,4.56-1.27,41.48,41.48,0,0,1,4.7.65,28,28,0,0,0-4.53,8.31c-.23.71,2.46.35,2.71-.43,1.24-3.83,3.75-7,6.22-10.11,4-5,10.25-4.53,14.2.06s3.17,13.94-2.9,16.48c-1.78.75-.11,1.28,1,.82a11.27,11.27,0,0,0,6.06-6c3.94,2,7.23,3.82,8.57,8.6C241.23,279.55,233.53,290.52,225,288.92Z"/><path class="b5741657-e9e8-480e-bd36-d4759de758df" d="M354.65,321.68a19.46,19.46,0,0,1-12.07,11.66l-1.47,7.71a13.55,13.55,0,0,1-2.39,6.14,12,12,0,0,1-7.07,4.16c.13,0,.25.14.25.25v7.74a14.74,14.74,0,0,1,2.19-1,4.88,4.88,0,0,1,1.13-.26,1.22,1.22,0,0,1,.73.08c.44.28-.73.75-.87.8l-.3.11,0,0h-.06l-.53.25-.16.07-.06,0-.05,0h0l-.06,0-.51.31c-.17.12-.35.23-.51.35l0,0-.12.09-.24.18-.47.4v.21c0,.61-.79.88-1.28,1l-.2,0h0a2.77,2.77,0,0,1-1.63.14,18.59,18.59,0,0,1-6.72-3.79c-.34-.3.7-.67.89-.74a4.8,4.8,0,0,1,1.12-.26c.14,0,.6-.07.73.05a18.28,18.28,0,0,0,4.23,2.8v-8c0-.39.32-.64.68-.81a11.35,11.35,0,0,1-2-.1c-.63-.09-.67-.57-.26-1a2.7,2.7,0,0,1,2.05-.55,7.48,7.48,0,0,0,7.41-4,19.66,19.66,0,0,0,1.61-5.82c.42-2.21.85-4.43,1.27-6.65.07-.35.52-.63,1.05-.8-.05-.46.28-1,1.09-1.25,5.89-1.75,9.67-7.49,11-13.24,1.51-6.58-.12-13.41-2.53-19.57a104.59,104.59,0,0,0-9.57-18.54c-3.47-5.35-7.41-10.69-13.89-12.36-6-1.53-12.46-.24-18.39,1-.56.11-1.52.12-1.71-.6s.61-1.25,1.18-1.36c7.2-1.51,15.12-3,22.26-.46a22,22,0,0,1,9.6,7.37,10.65,10.65,0,0,0-.82-5.81,9.5,9.5,0,0,0-.49-.95.06.06,0,0,1,0,0c0-.17-.06-.33-.08-.49a14,14,0,0,1,2.28-9.73,15.69,15.69,0,0,1,9.88-6.57c.25-.05,1.25-.2,1.16.29s-1.31.72-1.69.8c-3.05.67-5.6,3.3-7.07,5.92a13.35,13.35,0,0,0-1.58,9,11.78,11.78,0,0,1,.85,9.35,1.39,1.39,0,0,1-.57.71c1.11,1.57,2.12,3.2,3.09,4.79a107.38,107.38,0,0,1,7.91,15.39,0,0,0,0,0,0,0c.71,1.77,1.36,3.57,1.92,5.37C356.62,308.24,357.21,315.25,354.65,321.68Z"/><path class="b5741657-e9e8-480e-bd36-d4759de758df" d="M353.14,240.12a5.43,5.43,0,0,1-.12,1,5.52,5.52,0,0,1-.16.54l-.09.24s-.12.26,0,.11a5.16,5.16,0,0,1-.55.9,4.23,4.23,0,0,1-.33.41c.16-.19,0,0-.05.05s-.15.15-.23.21l-.4.35c-.08,0-.05,0,.08-.07l-.11.08-.26.17-.22.13c-.24.14.28-.12,0,0s-.33.13-.48.21c.39-.18.16-.06,0,0l-.25.07-.17,0,.22,0a1.17,1.17,0,0,0-.26,0,1.14,1.14,0,0,0-.26,0c.22,0,.26,0,.11,0h-.4c-.09,0-.06,0,.11,0l-.18,0a2.56,2.56,0,0,0-2,.55.71.71,0,0,0-.29.63.68.68,0,0,0,.56.39c4,.59,8.72-2.35,8.67-6.71,0-.23-.41-.36-.56-.4a2.32,2.32,0,0,0-1.08.07c-.54.15-1.27.46-1.26,1.11Z"/><path class="b5741657-e9e8-480e-bd36-d4759de758df" d="M357.89,236.17a6.3,6.3,0,0,1,3.7,5.35,5.8,5.8,0,0,1-3,5.33c-.45.22-1.16.8-.72,1.35s1.43.38,1.94.13a8,8,0,0,0,4.71-7,7.49,7.49,0,0,0-4.36-6.76,2.16,2.16,0,0,0-2.07.21c-.39.27-.86,1-.19,1.34Z"/><path class="b5741657-e9e8-480e-bd36-d4759de758df" d="M400.39,271.53c.44.38.11,1-.31,1.3a2,2,0,0,1-2.07.2,15.22,15.22,0,0,0-16.12.13,2.47,2.47,0,0,1,.86,0,4.7,4.7,0,0,1,3.32,4.84c-.06,2.49-1.83,4.41-3.86,5.66-5.21,3.22-12.34,3.44-18,1.57-.65-.21,0-.75.31-.92a2.8,2.8,0,0,1,2-.33c4.29,1.41,10,1.72,13.92-.89a5.54,5.54,0,0,0,2.73-4.9,4,4,0,0,0-2.75-3.78c-.53-.13-.21-.54.09-.78a1.31,1.31,0,0,1-.85-.21c-.55-.4-.31-1.05.19-1.39a19.37,19.37,0,0,1,16.44-2.44A15.3,15.3,0,0,0,392,265.9a9.31,9.31,0,0,0-7.79-.93c-.54.21-1.54.42-2-.17s.19-1.19.71-1.4a12.86,12.86,0,0,1,2.83-.75,28.36,28.36,0,0,0-18.2-13.18c-1.3-.28-1-1.27-.28-1.79a.63.63,0,0,1-.22-.34c-.16-.64.7-1.15,1.22-1.25l.41-.11.17-.09a1.49,1.49,0,0,0,.43-.36,3.66,3.66,0,0,0,.77-1.41,5.69,5.69,0,0,0-.1-3.69c-1.15-3-4.77-4.51-7.52-5.64-1.65-.68.66-2.2,1.72-1.77,3.38,1.39,7.73,3.19,8.84,7.07.86,3-.54,6.47-3.52,7.51a30.35,30.35,0,0,1,19,14,.84.84,0,0,1-.07,1,13.58,13.58,0,0,1,4.87,1.28,17.9,17.9,0,0,1,7.17,6.72A.77.77,0,0,1,400.39,271.53Z"/><path class="b5741657-e9e8-480e-bd36-d4759de758df" d="M385.12,267.45c.5,0,1.65-.22,1.93-.72s-.26-.55-.71-.55-1.65.22-1.93.71.26.56.71.56Z"/><path class="b5741657-e9e8-480e-bd36-d4759de758df" d="M370.85,282.29a10.59,10.59,0,0,0,9.78-2.62.84.84,0,0,0-.38-1.4,2,2,0,0,0-2,.55c.2-.19-.16.13-.2.16l-.37.3-.4.26c-.14.09-.13.09,0,0l-.21.12c-.28.15-.57.27-.86.4s-.15.06,0,0l-.22.08-.46.14-.47.11-.23,0c.2,0,.21,0,0,0s-.63.07-.95.08h-.22l-.48,0-.47-.06-.25-.05a2,2,0,0,0-2,.55.84.84,0,0,0,.38,1.4Z"/><path class="b5741657-e9e8-480e-bd36-d4759de758df" d="M368.45,264.65c.42-.27.85-.52,1.3-.75l.35-.19c.08,0,.36-.19,0,0,.22-.12.46-.21.69-.31l.7-.27.28-.1c-.42.18,0,0,.1,0,.48-.14,1-.27,1.46-.37a2.59,2.59,0,0,0,1-.46c.14-.11.36-.33.3-.54-.14-.56-1.28-.3-1.61-.23A19.12,19.12,0,0,0,366.7,264c-.19.12-.5.3-.57.55a.37.37,0,0,0,.28.43,2.63,2.63,0,0,0,2-.31Z"/><path class="b5741657-e9e8-480e-bd36-d4759de758df" d="M339,267.87c-.17,0-.29-.1-.32-.21s-.12-.49-.17-.74A9.5,9.5,0,0,1,339,267.87Z"/><path class="b5741657-e9e8-480e-bd36-d4759de758df" d="M338.5,266.88a.68.68,0,0,1-.08-.49C338.44,266.55,338.47,266.71,338.5,266.88Z"/><path class="b5741657-e9e8-480e-bd36-d4759de758df" d="M364.26,282.33c-.11.54-1.2.79-1.65.87,0,0-.17.12-.19.14a3.89,3.89,0,0,0-.61.67,5.74,5.74,0,0,0-.81,1.67c-.44,1.36-.59,2.79-1.06,4.14a13.24,13.24,0,0,1-4.74,6.25,3.11,3.11,0,0,1-2.05.55.63.63,0,0,1-.46-.24,0,0,0,0,1,0,0c-.06-.15,0-.33.26-.51a12,12,0,0,0,4.6-7.3,11.6,11.6,0,0,1,1.5-4.26,6,6,0,0,1,4-2.36C363.35,281.88,364.39,281.77,364.26,282.33Z"/><path class="b5741657-e9e8-480e-bd36-d4759de758df" d="M336.75,302.82c.27,4.24-5.19,4.83-8.27,4.51-.58-.06-.63-.35-.19-.68a3.25,3.25,0,0,1,2-.55c1.23.12,2.5.41,3.18-.85a3.73,3.73,0,0,0-.08-3.26c-1.2-2.71-4.46-3.24-7.07-3.59-.16,0-.66-.07-.5-.37,1.14-2.2,3.05-3.82,4.46-5.83a6.18,6.18,0,0,0,1.26-3.07,3.63,3.63,0,0,0-.27-1.69,2.75,2.75,0,0,0-.48-.59,20.53,20.53,0,0,1-15.9,3.88c-.68-.12.12-.69.34-.8a3.33,3.33,0,0,1,2-.36,14,14,0,0,0,8.59-1.11,31.39,31.39,0,0,0,3.52-2.37c1-.68,2.78-1.22,3.91-.5,2.08,1.33,1,4.42-.07,6-1.34,2-3.2,3.57-4.37,5.66C332.21,297.75,336.5,298.81,336.75,302.82Z"/><path class="b5741657-e9e8-480e-bd36-d4759de758df" d="M67.58,256.72h0a2.43,2.43,0,0,0,.25.2Z"/><path class="b5741657-e9e8-480e-bd36-d4759de758df" d="M91,405.82c-.21-.05-.33-.14-.3-.29l.06-.36h0A.55.55,0,0,0,91,405.82Z"/><path class="b5741657-e9e8-480e-bd36-d4759de758df" d="M28.94,281.09c0-.13.08-.25.13-.38l-.09.23a4,4,0,0,1,.59-.94l-.19.22a4.22,4.22,0,0,1,.58-.54l-.26.2a3.67,3.67,0,0,1,.53-.34l-.32.17a3.16,3.16,0,0,1,.5-.22l-.37.13.38-.11a2.2,2.2,0,0,0,1-.49c.15-.15.37-.43.28-.66-.22-.62-1.18-.48-1.65-.38a5.39,5.39,0,0,0-4,3.45.51.51,0,0,0,.31.55,1.75,1.75,0,0,0,1,.12,2.63,2.63,0,0,0,1.09-.38,1.25,1.25,0,0,0,.55-.63Z"/><path class="b5741657-e9e8-480e-bd36-d4759de758df" d="M38,269.36a11.4,11.4,0,0,1,4.57-4.71,9.88,9.88,0,0,1,5.88-1.24,2.16,2.16,0,0,0,1.91-.82c.35-.62-.31-.93-.82-1a14.94,14.94,0,0,0-14.26,7.59c-.31.6.28.94.82,1a2.15,2.15,0,0,0,1.9-.82Z"/><path class="b5741657-e9e8-480e-bd36-d4759de758df" d="M123.82,308.72a.59.59,0,0,0,0,.13.92.92,0,0,1-.33.29l-.27.15a4.75,4.75,0,0,1-1.11.34,2.84,2.84,0,0,1-.92,0l-2.78-.41a.3.3,0,0,1-.26-.17s0-.09,0-.13a.89.89,0,0,1,.32-.29l.28-.15a4.54,4.54,0,0,1,1.1-.34,2.84,2.84,0,0,1,.92,0l2.79.41A.32.32,0,0,1,123.82,308.72Z"/></g></g></svg>