<svg xmlns="http://www.w3.org/2000/svg" viewBox="0 0 330.58 326.3"><defs><style>.abad1b4a-aae1-46c8-bdc9-bb7b6b30d323{fill:#231f20;}</style></defs><g id="f983943c-d45c-4489-a573-8733d748b664" data-name="Layer 2"><g id="fede5563-04c7-4e0f-bcac-1ec32e757931" data-name="Eend"><path class="abad1b4a-aae1-46c8-bdc9-bb7b6b30d323" d="M260,119.72c-1.8-.15-4.09,2.48-1.41,2.66,14.8,1.09,30.24,2.21,44.6-2.46,11.32-3.68,21.85-10.83,27.25-21.72.95-1.91-2.37-1.46-3.17-1a73.4,73.4,0,0,1-33.91,10.73,124.59,124.59,0,0,0,14.72-9.85l0,0a8.85,8.85,0,0,1,2,5.3c0,.33.9.33,1,.33a7.71,7.71,0,0,0,2.15-.31,8.91,8.91,0,0,0,2-.8c.29-.18.72-.43.72-.82a9.17,9.17,0,0,0-3.91-7c2.07-1.68,4.11-3.46,5-6,.81-2.23.53-4.51-2-5.27a3,3,0,0,0-2.79.76c-.61.68-1.25,1.31-1.9,1.95a1.38,1.38,0,0,0-.35-.82c-10.3-12.23-27.91-13.76-42.8-14.75a257.74,257.74,0,0,0-56.6,2.52q-4.73.75-9.44,1.66a.42.42,0,0,0-.08-.55Q186.45,58.18,170.75,43c-10-9.71-20.11-19.56-31.12-28.14-9.57-7.45-20.71-14-33.1-14.74C94.62-.63,82.92,4,74.08,11.9,63.31,21.55,57.86,35.58,55.46,49.56a.41.41,0,0,0,.13.41c-8.09,9.18-16.26,18.31-24.92,27C26,81.57,21.16,86.09,16.15,90.37c-2.52,2.13-5.08,4.22-7.7,6.23A34.12,34.12,0,0,0,2,102.29c-3.16,4-2.56,9,2,11.76,5.29,3.17,11.78,1.08,17-1.13,11.94-5,24.06-10,35.63-15.83C66.64,92,76.23,85.85,83.68,77.39a44.14,44.14,0,0,0,42.7-6.51,36.46,36.46,0,0,1,21.56,23.43c-8.33,7-14.05,16.6-17.53,27.29-4.38,13.46-5.16,28.75.35,42,5.36,13,15.77,23.41,28.18,29.78A68.3,68.3,0,0,0,178.72,200a57.69,57.69,0,0,0,11,.7.34.34,0,0,0,0,.14q-.61,31.05-1.2,62.11c-.15,7.1-.27,14.21-.41,21.31a3,3,0,0,0-1.31,1,19.43,19.43,0,0,1-10.16,8c-5.26,1.76-11,1.31-16.36.19a5.34,5.34,0,0,0-3.73.78c-1-.29-1.92-.58-2.89-.82a4.92,4.92,0,0,0-4.17,1.12c-.93.88-.68,1.74.55,2.07a54.49,54.49,0,0,1,34.05,26.89,2.05,2.05,0,0,0,1.85.84H186a1.15,1.15,0,0,0,.41,1.33h0a3,3,0,0,0,1.47.63,4.22,4.22,0,0,0,3.89-1.76,123.81,123.81,0,0,1,17.14-19.86c3.48-3.26,7.25-6.35,10.36-9.95h.21c1.17-.08,3.13-.86,3.32-2.21a1.25,1.25,0,0,0-.8-1.36,24,24,0,0,0,2.31-4.23c1.25-3-4.71-2.73-5.63-.5a25.19,25.19,0,0,1-2.48,4.47,39,39,0,0,1-22.2-8.42q.19-10.06.39-20.13.62-31,1.19-61.94c2.15-.16,4.3-.37,6.45-.6,19.52-1.94,39.13-3.46,58.59-6a109.21,109.21,0,0,0,11.87-2.09.72.72,0,0,0-.08.35v58.27a41.8,41.8,0,0,1-23.06,1.93,6.06,6.06,0,0,0-3,.22l-5.24-3.37a3.89,3.89,0,0,0-4.26.36c-1,.74-1.59,2.26-.32,3.08q17.69,11.32,35.34,22.68a2.34,2.34,0,0,0,.55.27v.66c0,1.22,5.92.3,5.92-1.6V274c.1-.1.18-.2.27-.3a206,206,0,0,1,35-37.5c3.09-2.58-1.64-4.65-3.93-2.74q-6.45,5.34-12.45,11.26a25.58,25.58,0,0,1-17.32-1.21,3.37,3.37,0,0,0-1.56-.2V190.49a.37.37,0,0,0-.18-.31,58.31,58.31,0,0,0,8.08-3.21c7.77-3.83,14.65-9.55,20.63-15.75,11.44-11.92,19.47-27.69,17.71-44.58a38.56,38.56,0,0,0-3.42-12.39c-1.11-2.42-7-.65-5.94,1.58,7,15,3.07,32.11-6.08,45.25a78.61,78.61,0,0,1-16.63,17.14,54.85,54.85,0,0,1-22.61,10.18c-8.43,1.8-17.12,2.37-25.7,3.23L216.7,194.4c-8.47.84-17.1,2.25-25.63,2.37a57.43,57.43,0,0,1-19.19-3.11,59.72,59.72,0,0,1-30.57-23.06c-7.58-11.34-9.67-24.83-7.62-38.19,2-13.12,7.8-27.44,18.26-36.12l.74-.59c.53-.43,1.09-.84,1.64-1.23h0c5.55-3.89,12-6.31,18.43-8.36a242.48,242.48,0,0,1,25.45-6.73,246.09,246.09,0,0,1,52.63-5.24,231.45,231.45,0,0,1,25.51,1.53c7,.86,14.19,2.29,20.42,5.78a28.12,28.12,0,0,1,7.9,6.49c.66.78,2,.84,3.26.51A45.77,45.77,0,0,1,267.9,97.6c-1.58-.39-4.69,1.93-2.34,2.52a51.94,51.94,0,0,0,48.19-12.86c0,1.43-1.62,3.61-2.24,4.2a76.18,76.18,0,0,1-7.7,6.31A124.11,124.11,0,0,1,287,108.39c-1.12.6-1.72,2.4.15,2.4a81,81,0,0,0,37.14-8.89C310.86,122.34,281.86,121.3,260,119.72ZM187.91,293.45c-.14,7.76-.2,15.56-1,23.3a57.42,57.42,0,0,0-22.26-19.31c8.4.29,17.12-1.7,23.3-7.17Zm84.53-24.21-21.17-13.61a53.86,53.86,0,0,0,21.17-2.75Zm5.92-21.89a33.83,33.83,0,0,0,15.26.91,199.7,199.7,0,0,0-15.26,17.38ZM193.81,293.9c0-1.74.06-3.46.1-5.2a44.7,44.7,0,0,0,19.23,6c-3.11,3.36-6.8,6.28-10.08,9.44a120.18,120.18,0,0,0-10.21,11.08C193.54,308.11,193.67,301,193.81,293.9ZM183.26,79C174.72,81.32,166,83.84,158,87.73a46,46,0,0,0-4.87,2.75,37.61,37.61,0,0,0-23.26-22.36l-.23-.07a41.08,41.08,0,0,0,10.92-17.52c.71-2.28-5.27-1.5-5.94.65A37.28,37.28,0,0,1,117,72.8c-9.32,5-20.7,5-30.33.86l.19-.24c.86-1.17-.74-1.84-1.66-1.93a4.68,4.68,0,0,0-3.91,1.66c-12.84,17.47-34.94,25-54.06,33.3-2.91,1.27-5.82,2.54-8.73,3.77-2.5,1.06-5.38,2.37-8.13,1.59-2.35-.65-4.56-2.68-4.54-5.28s2.15-4.61,4-6.14c4.36-3.61,8.93-6.92,13.19-10.65s8.62-7.86,12.76-12c9.33-9.36,18.1-19.29,26.86-29.2,1.17-1.31.35-2-.94-2.19,2.11-10.88,6-21.67,13.29-30.19,7.47-8.8,18-14.66,29.73-13.33s22.06,8.22,31,15.38c9.93,8,19.2,16.94,28.38,25.78q16.1,15.54,31.23,32.07Q189.28,77.37,183.26,79Z"/><path class="abad1b4a-aae1-46c8-bdc9-bb7b6b30d323" d="M186.42,325.64c-.43-.1-.68-.29-.62-.59s.08-.5.13-.74H186A1.15,1.15,0,0,0,186.42,325.64Z"/><path class="abad1b4a-aae1-46c8-bdc9-bb7b6b30d323" d="M59.25,70.21a7,7,0,0,1,.29-.76l-.2.45A7.81,7.81,0,0,1,60.55,68l-.38.45a8.25,8.25,0,0,1,1.18-1.11l-.54.4a7.81,7.81,0,0,1,1.1-.69l-.67.35a6.8,6.8,0,0,1,1-.45l-.77.27a6.39,6.39,0,0,1,.78-.22,4.6,4.6,0,0,0,2-1c.31-.29.75-.87.58-1.34-.46-1.27-2.42-1-3.39-.77a11,11,0,0,0-8.14,7A1.06,1.06,0,0,0,53.93,72a3.6,3.6,0,0,0,2,.24,5.39,5.39,0,0,0,2.24-.77,2.48,2.48,0,0,0,1.11-1.3Z"/><path class="abad1b4a-aae1-46c8-bdc9-bb7b6b30d323" d="M154.33,94.47c0,.43-.74.88-1.64,1.23C153.22,95.27,153.78,94.86,154.33,94.47Z"/><path class="abad1b4a-aae1-46c8-bdc9-bb7b6b30d323" d="M77.78,46.19a23.25,23.25,0,0,1,9.36-9.64,20.28,20.28,0,0,1,12-2.54,4.42,4.42,0,0,0,3.9-1.68c.73-1.26-.63-1.9-1.67-2-11.56-1-23.79,5.17-29.2,15.55-.64,1.24.57,1.92,1.67,2,1.26.07,3.26-.45,3.9-1.69Z"/><path class="abad1b4a-aae1-46c8-bdc9-bb7b6b30d323" d="M242.41,127.87l5.72.85a5.66,5.66,0,0,0,1.88-.06,9,9,0,0,0,2.26-.71l.56-.3a1.79,1.79,0,0,0,.66-.59l0-.27a.63.63,0,0,0-.52-.34l-5.71-.85a5.93,5.93,0,0,0-1.88.07,8.66,8.66,0,0,0-2.27.7l-.56.3a1.9,1.9,0,0,0-.66.6l0,.26a.6.6,0,0,0,.52.34Z"/></g></g></svg>