<svg xmlns="http://www.w3.org/2000/svg" viewBox="0 0 360.34 329.42"><defs><style>.a1032c15-67e8-4edc-bc28-f520ae6167cd{fill:#faf3dd;}</style></defs><g id="fe36816f-793b-4e7d-b156-216e71dedf15" data-name="Layer 2"><g id="bdc009dc-784b-4bd0-a312-593fcb456cde" data-name="Laag 1"><path class="a1032c15-67e8-4edc-bc28-f520ae6167cd" d="M134,221.89a83.41,83.41,0,0,1,11.22-8.17,11.55,11.55,0,0,0,5.6-9.43c.86-28.45,16.74-52.82,41.25-59.15,28.66-7.4,59,12.47,71.1,45.12a11.43,11.43,0,0,0,7.51,7.05,82.43,82.43,0,0,1,11.25,4.26C317.05,218,334.56,254.86,321,283.93s-53.08,39.32-88.25,22.9q-2.37-1.11-4.64-2.34a12.33,12.33,0,0,0-14.6,2c-1.16,1.13-2.37,2.23-3.61,3.31-29.37,25.37-70.18,26.25-91.15,2S104.58,247.26,134,221.89Z"/><path class="a1032c15-67e8-4edc-bc28-f520ae6167cd" d="M287.37,85.17c-18.14,29.9-18.91,62.59-1.72,73s45.82-5.37,64-35.27,9.48-69.47,1.72-73C341.79,45.54,305.5,55.26,287.37,85.17Z"/><path class="a1032c15-67e8-4edc-bc28-f520ae6167cd" d="M186.69,56.51c-5.73,34.5,5.7,65.14,25.53,68.43s40.54-22,46.27-56.5S241.48.42,233,0C222.5-.5,192.42,22,186.69,56.51Z"/><path class="a1032c15-67e8-4edc-bc28-f520ae6167cd" d="M88.89,107.23c22.89,26.45,53.76,37.22,69,24.07s9-45.25-13.92-71.69S80.73,29.24,75,35.54C67.9,43.27,66,80.79,88.89,107.23Z"/><path class="a1032c15-67e8-4edc-bc28-f520ae6167cd" d="M41.72,214.21c31.5,15.21,64.11,12.87,72.85-5.23s-9.7-45.1-41.19-60.31S3.32,145.84.53,153.9C-2.9,163.8,10.23,199,41.72,214.21Z"/></g></g></svg>