<svg xmlns="http://www.w3.org/2000/svg" viewBox="0 0 400.15 364.76"><defs><style>.b990eeca-aa20-4690-909b-a21fc9e09ba5{fill:#faf3dd;}</style></defs><g id="bc6b0943-6b72-4b8f-a50e-9a33f5611ba9" data-name="Layer 2"><g id="a8ff58cc-4f60-46ff-8ca8-8ea49f6d944a" data-name="Laag 1"><path class="b990eeca-aa20-4690-909b-a21fc9e09ba5" d="M290.41,210.94a91.33,91.33,0,0,0-14.58-3.5,12.44,12.44,0,0,1-9.51-7.07c-12.69-28-38.67-45.75-65.75-41.88-31.69,4.53-53.66,37-52.2,74.59a12.35,12.35,0,0,1-4.57,10.15,90.94,90.94,0,0,0-9.45,8.93c-28.26,31-30.41,75.07-4.79,98.44s69.32,17.17,97.58-13.83q1.92-2.1,3.66-4.27a13.34,13.34,0,0,1,15.41-4.07q2.43,1,5,1.8c39.86,13.1,80.95-3,91.78-35.92S330.27,224,290.41,210.94Z"/><path class="b990eeca-aa20-4690-909b-a21fc9e09ba5" d="M80.49,138.28c30.52,22.3,44.88,54.61,32.07,72.15s-48,13.69-78.49-8.61S-4.26,136.44,2,129.67C9.71,121.36,50,116,80.49,138.28Z"/><path class="b990eeca-aa20-4690-909b-a21fc9e09ba5" d="M169,67.84c20.06,32,21.39,67.37,3,78.9s-49.61-5.11-69.66-37.16S91,34.64,99.37,30.69C109.61,25.84,149,35.79,169,67.84Z"/><path class="b990eeca-aa20-4690-909b-a21fc9e09ba5" d="M287.71,77.8c-11.84,35.9-38.17,59.49-58.8,52.68S201.15,89.05,213,53.15,263.44-3.42,271.8.47C282.07,5.24,299.56,41.89,287.71,77.8Z"/><path class="b990eeca-aa20-4690-909b-a21fc9e09ba5" d="M379.26,164.94c-25.11,28.27-58.63,39.49-74.87,25.06s-9.07-49,16-77.3,68.73-31.95,74.87-25.07C402.83,96.09,404.36,136.67,379.26,164.94Z"/></g></g></svg>