<svg xmlns="http://www.w3.org/2000/svg" viewBox="0 0 333.27 493.93"><defs><style>.fe773412-364a-40b0-8570-cc63e9f65798{fill:#231f20;}.b9133828-316d-44e8-b60d-80a26d489099{fill:none;}</style></defs><g id="a24e3e12-9fe7-44c0-bfad-e659a383a40d" data-name="Layer 2"><g id="f3ac170d-d6cb-46d1-8825-9e1f57a9fe0b" data-name="KHK"><path d="M71.49,338l-.11-.12-.1-.74,0-.05c0-.26,0-.52-.08-.78Z"/><path class="fe773412-364a-40b0-8570-cc63e9f65798" d="M287.1,228.57s-1.6-5.76-13.57-15.18-29.52-24.07-8.78-31.13,47.88,10.2,46.82,21.71-7.19,17.79-13,20.93a33.65,33.65,0,0,1-11.43,3.67Z"/><path class="fe773412-364a-40b0-8570-cc63e9f65798" d="M332.75,101.23c-1.41-11.35-8.46-21.81-15.23-30.7-6-7.88-15.2-6.24-23.9-5.38-10.24,1-16.08,2.74-22.07,11.58-8.06,11.9-22.2,17.23-32.24,27.2-.56.55-.55.95-.25,1.2-10.89-2.19-22.63-2.36-33.09-1.74l-.73.06c-1.49-13-.85-23.69,9-33.29,5.18-5.07,2.7-17.43-3.69-20.7-12.33-6.29-31.95-4.52-41.14,6.12C163.05,62.9,158.1,73.17,154.1,82c-2.57,5.62-5.55,13.75-.9,19.09,3.76,4.32,12.74,2.45,16.83-.17,7.31-4.67,4.22-17.06,12.85-20.41,2.86-1.1.23-2.44-1.7-1.69a12.91,12.91,0,0,0-7.68,7.07c-1,2.39-1.8,4.85-2.61,7.32-2,6.1-10.69,11.68-14.86,4.52-2.84-4.87.67-12.79,2.9-17.25a215.3,215.3,0,0,1,11.91-21.3c6-9.24,13.95-10.62,24.31-10.27,10.63.37,17.7,5.36,17.36,16.84-.11,3.57-4,5.49-6,7.88a25.75,25.75,0,0,0-5.14,9.58c-2,6.53-1.39,14-.59,20.8a58.87,58.87,0,0,0-6.76,1.48c-1.11-7.46-3-14.78-3.93-22.27-.41-3.28,1.32-11.6-2.09-13.88-6.32-4.24-15.4-.75-18.89,5.55-.23.43,3.72.23,4.3-.82,2.54-4.6,9.44-6.46,11.73-1.2,1,2.38.3,6.38.37,8.88.24,8.46,2.91,16.78,4.17,25.13-8.18,3-15.8,7.78-20.89,14.24-1.71,2.15,2.46,2.61,3.62,1.15,10.25-13,28.12-16.45,43.74-15.94,14.21.47,28.56,2.25,41.1,9.34,13.07,7.41,19.67,19.8,22.14,34.2,1.76,10.3,3.63,23.92,11.28,31.81,1.31,1.34,5.46-.39,4-1.88-11-11.34-9.11-30.77-14.45-44.6-4.85-12.54-16.08-21.05-28.08-26.1a67,67,0,0,0-11.46-3.57,3.55,3.55,0,0,0,2.15-.7C250.11,97.57,259.2,93,267,86.5a43.46,43.46,0,0,0,8.63-9.58c3.48-5.14,6-8,12.58-8.82,2.17-.28,4.39-.3,6.57-.52,6.29-.62,12.14-1.64,17.23,3.06,3.15,2.91,5.26,7.13,7.63,10.66,6.83,10.15,11.42,23.07,8.23,35.34-1.95,7.46-13,6.5-18.66,5.2-4.94-1.12-6.9-6.31-8.5-10.49A72.92,72.92,0,0,0,292,95.26C285.3,85.89,275.32,81.6,266,90c-1.92,1.74,2.4,1.88,3.54.86,16.31-14.7,25.49,28,35.09,32.86,5.94,3,15.09,2.06,21.07-.31C334.35,120,333.67,108.71,332.75,101.23Z"/><path class="fe773412-364a-40b0-8570-cc63e9f65798" d="M221,158.54c2.17-.39,4.35-.85,6.55-1.3.15.28.54.46,1.27.46,6.94,0,13.89,0,20.77-1.07a2.88,2.88,0,0,0,.67-.19l.72.19c1.13.35,5.07-1.41,3.53-1.89-.94-.29-1.89-.51-2.84-.71-.24-.32-.75-.49-1.63-.35l-.18,0c-6.2-.94-12.47-.12-18.69,1h-.78a2.92,2.92,0,0,0-1.38.41c-2.44.47-4.87,1-7.29,1.41C219.87,156.9,218,159.09,221,158.54Z"/><path class="fe773412-364a-40b0-8570-cc63e9f65798" d="M274.48,161.1c1.44.84,5.39-1.17,3.42-2.32-3.69-2.14-7.23-3.61-11.57-3.43-2.33.09-3.49,2.93-.49,2.8C269.05,158,271.79,159.54,274.48,161.1Z"/><path class="fe773412-364a-40b0-8570-cc63e9f65798" d="M122.11,156.42A151.52,151.52,0,0,0,118.39,186c0,2.13,4.38,1.36,4.41-.41A150.66,150.66,0,0,1,126.52,156C126.94,154,122.49,154.65,122.11,156.42Z"/><path class="fe773412-364a-40b0-8570-cc63e9f65798" d="M120.92,227.19c0,55.85-1.6,111.71-1.87,167.56a1.1,1.1,0,0,1-.37.72,2,2,0,0,1-.14.16l-1,.53-.19.06c-1.23.42-2.71.38-2.71-.3.27-55.86,1.83-111.71,1.86-167.57C116.54,226.77,120.92,226,120.92,227.19Z"/><path d="M117.58,396.16l-.14.08,0,0Z"/><path d="M118.76,395.5l-.22.13a2,2,0,0,0,.14-.16Z"/><path class="fe773412-364a-40b0-8570-cc63e9f65798" d="M247.85,262.57c-3.28,0-3.92-3-3-5.67a8.28,8.28,0,0,1,5.43-5,13.38,13.38,0,0,1,9.55.19,17.45,17.45,0,0,1,3.19,2c.44.34-.52,1.78-1.63,1.37-.88-.27-2.94-.78-3.36-.84-2.1-.28-4.22-.6-6.15.5-1.29.73-3.06,2.84-1.9,4.36.27.36,1.27.67,1.47.78.78.45,1,.94.62,1.39a10.46,10.46,0,0,1-4.18,1Z"/><path class="fe773412-364a-40b0-8570-cc63e9f65798" d="M267.69,157.27c-.26-.05-.52-.09-.79-.12l-.3-.05c-.11,0-.31-.13-.07,0-.13-.06-.07-.07,0,0s-.14-.11-.18-.18a3.06,3.06,0,0,1-.21-.73l-2.47,1.64a18.33,18.33,0,0,1,13.75,3.46,3.15,3.15,0,0,0,2.82,0c.33-.13,1.95-1,1.18-1.57a22.57,22.57,0,0,0-17.1-4c-.63.11-2.67.6-2.47,1.64A2.12,2.12,0,0,0,263,159a8.74,8.74,0,0,0,2,.43,4.05,4.05,0,0,0,3-.82c.68-.56.5-1.18-.36-1.34Z"/><path class="fe773412-364a-40b0-8570-cc63e9f65798" d="M282.19,94.72c-4.55-3.52-10.4-2.82-14.88.49-4.21,3.12-7.08,7.91-9.43,12.5-1.09,2.14-2.07,4.33-3,6.55-.33.81,1.43.68,1.77.62.77-.11,2.15-.46,2.49-1.28a69.76,69.76,0,0,1,5.38-10.85,32,32,0,0,1,4.2-5.49A15.52,15.52,0,0,1,271,95.32a8,8,0,0,1,1-.6,1.51,1.51,0,0,1,.37-.17l.3-.11c.35-.13-.5.13.12,0,0,0,.36-.08.11,0s.17,0,.21,0a2.86,2.86,0,0,1,.49,0,6.4,6.4,0,0,1,1.13.15,9.3,9.3,0,0,1,3.42,1.8c.71.55,2.05.16,2.79-.13.33-.12,1.92-.89,1.23-1.42Z"/><path class="b9133828-316d-44e8-b60d-80a26d489099" d="M0,272.77c0,.16,0,.32,0,.49a.52.52,0,0,0,0-.37Z"/><path class="b9133828-316d-44e8-b60d-80a26d489099" d="M212.71,265.22c0-.17,0-.33,0-.49l0,.13A.5.5,0,0,0,212.71,265.22Z"/><path d="M71.12,460.19c-.61,1.19-1.24,2.36-1.89,3.52A12.37,12.37,0,0,0,71.12,460.19Z"/><path d="M284.7,248.7c-8.63,9.14-18.32,17.87-30.23,21.91s-26.51,2.34-34.93-7c-3.69-4.09-6.33-9.61-11.46-11.6,4.06-21.39,8.07-43.16,5.77-64.82S202,143.64,184,131.41c-12.29-8.35-28.61-12.61-35.63-25.7-1.45-2.71-5.47-5.86-6.61-3,6.34,16.77,27.07,21.88,41.36,32.71,12.95,9.81,20.92,25.11,24.66,40.92,7,29.59.27,60.72-9.71,89.43s-23.29,56.38-30,86a204.33,204.33,0,0,0,6.54,112.89,5.94,5.94,0,0,0,2.82,3.34c3.93,2,6.93-2.33,7-6,.09-5.17-3.14-10.21,2-15.47a13.69,13.69,0,0,1,16.32-2.33c8,4.42,10.81,14.42,10.42,23.41-.19,4.32-1,8.72-3.29,12.38-5.62,9-18.37,10.8-28.6,8s-19.1-9.18-28.9-13.27a67.79,67.79,0,0,0-11.12-3.53,1.69,1.69,0,0,0-2,2.11l.06.2a2.78,2.78,0,0,0,2,1.95,61.48,61.48,0,0,1,7.37,2.27c9.08,3.44,17.29,8.89,26.3,12.51s19.56,5.25,28.26.93c8.17-4.06,13.29-12.89,14.46-21.93,1.12-8.67-1.27-18-7.48-24.17s-16.46-8.33-24.1-4.09a17.12,17.12,0,0,0-8.17,17.61c.63,1.63,1.28,3.26,2,4.88a13.08,13.08,0,0,1-2-4.88c-12.28-32-12.67-67.81-6.24-101.57,6.77-35.47,20.66-69.15,35.08-102.26A39,39,0,0,0,240,275.79c18.78.47,35-12.59,48.33-25.78,8.45-8.34,16.87-17.64,19.82-29,.15-.57.28-1.14.4-1.72A250.6,250.6,0,0,1,284.7,248.7Z"/><path d="M98.26,474.82c-9.64,4.08-18.35,10.32-28.37,13.38s-22.43,2-28.81-6.29c-3.17-4.11-4.39-9.44-4.53-14.62-.26-9.09,3.37-19.14,11.6-23,9.46-4.44,24,4.78,17.5,15.78a6,6,0,0,0,1,7.56c3.67,3.21,7.47-1.21,9.11-4.95,10.73-24.47,10.12-51.61,6.11-77.53-5.92-38-11.23-76.36-23.09-113.12-3.29-10.2-6.69-20.73-9.48-31.31-4.21-15.9-5.19-29.91-3-42.83C48.86,183,56.66,168,70.18,152.05c7.69-9.06,16.88-16.64,25.79-24,6.51-5.36,13.26-10.91,19.41-17,6.36-6.35,7.56-14.78,7.88-22.18.53-12.24-1.52-24.61-3.5-36.58l-.49-3.05c-.8-4.93-1.64-9.88-2.51-14.82.5,1.91,1,3.81,1.49,5.69,1,3.77,1.93,7.57,2.89,11.35,1.8,7.18,3.65,14.62,5.76,21.88,1.21,4.23,2.26,8.63,3.27,12.89a181.49,181.49,0,0,0,5.9,21l3-1.12a175.19,175.19,0,0,1-5.79-20.62c-1-4.29-2.09-8.75-3.32-13-2.07-7.2-3.94-14.61-5.73-21.77-1-3.8-1.9-7.58-2.89-11.38C118.1,26.87,114.56,13.52,110.59,0l-3.1.72q1.16,6.48,2.33,12.94c2.12,11.81,4.34,24,6.31,36.08l.49,3c1.95,11.81,4,24,3.45,35.92-.31,6.8-1.36,14.49-6.94,20.06-6,6-12.74,11.54-19.2,16.86-9,7.42-18.31,15.08-26.18,24.36-13.9,16.39-21.94,31.89-24.59,47.35-2.28,13.39-1.29,27.85,3,44.19C49,252.19,52.43,262.77,55.72,273c5,15.52,10,31.09,13.11,47.12,3,15.79,4.85,31.89,7.31,47.78,3.19,20.56,5.7,40.47,4.38,61.35-.67,10.71-4.42,21.32-9.4,30.94a12.37,12.37,0,0,1-1.89,3.52c.65-1.16,1.28-2.33,1.89-3.52,2.45-6.91-1-15.76-7.71-19.29-7.92-4.15-18.37-1.36-24.36,5.29s-7.88,16.29-6.49,25.13c1,6.14,3.52,12.22,8.11,16.42,8.41,7.68,21.56,7.37,32.32,3.63S93.33,481,104.07,477.22a63.43,63.43,0,0,1,7.15-2.06,2.23,2.23,0,0,0,1.65-2.78h0a2,2,0,0,0-2.31-1.41A69.06,69.06,0,0,0,98.26,474.82Z"/><path d="M177.94,458.55a13.08,13.08,0,0,0,2,4.88C179.22,461.81,178.57,460.18,177.94,458.55Z"/></g></g></svg>