<svg xmlns="http://www.w3.org/2000/svg" viewBox="0 0 142.99 142.99"><defs><style>.bb3b3af0-49a3-4e96-a70d-bcc2230a0ef4{fill:none;stroke:#231f20;stroke-miterlimit:10;stroke-width:5px;}</style></defs><title>tAsset 3</title><g id="b6ae3982-baf6-4c7e-a34b-22c71ab7f539" data-name="Layer 2"><g id="ac0a478c-8757-4638-83ca-7ec9c3e44c8b" data-name="Layer 1"><rect class="bb3b3af0-49a3-4e96-a70d-bcc2230a0ef4" x="2.5" y="2.5" width="137.99" height="137.99" rx="7.4"/><path class="bb3b3af0-49a3-4e96-a70d-bcc2230a0ef4" d="M71,118.6h36.4a11.54,11.54,0,0,0,7.91-3.29,9.78,9.78,0,0,0,3.15-7.31V71l.08,1V35a9.79,9.79,0,0,0-3.15-7.31,11.51,11.51,0,0,0-7.91-3.28H35.53a11.51,11.51,0,0,0-7.91,3.28A9.79,9.79,0,0,0,24.47,35V72l.09-1v37a9.78,9.78,0,0,0,3.15,7.31,11.54,11.54,0,0,0,7.91,3.29H72"/><circle class="bb3b3af0-49a3-4e96-a70d-bcc2230a0ef4" cx="71.64" cy="71.64" r="24.8"/><circle class="bb3b3af0-49a3-4e96-a70d-bcc2230a0ef4" cx="101.96" cy="41.17" r="5.53"/></g></g></svg>