<svg xmlns="http://www.w3.org/2000/svg" viewBox="0 0 229.59 460.29"><defs><style>.fef5df8e-9662-47fc-a6d3-c2d207d0caed{fill:none;}.edce0c5d-4576-4e05-9e74-1677f914b6fa{fill:#231f20;}</style></defs><g id="be2d088c-5991-4a11-acf2-4d335aec1a8f" data-name="Layer 2"><g id="e503dfc4-4fde-4eb9-bda7-74e1def43d7e" data-name="KHK"><path d="M168.64,441.39l-.63-1.15a2.64,2.64,0,0,1,.3-.1Z"/><path d="M226.82,312.87c0,.1,0,.2,0,.31a.3.3,0,0,1,0-.23Z"/><path class="fef5df8e-9662-47fc-a6d3-c2d207d0caed" d="M226.82,312.87c0,.1,0,.2,0,.31a.3.3,0,0,1,0-.23Z"/><path d="M228.69,312.8c.09-1.12.16-2.24.22-3.36.08-1.5.14-3,.17-4.51.46-22-12.64-46.36-26.85-62.35C179.06,216.5,163.28,192.09,158,157c-7.35-48.6-11.73-98.45,21.65-127.23A4.06,4.06,0,0,1,181,29.5l1.31-.05,0-1.18a1.59,1.59,0,0,1,1.05-.64c5.72.08,9.91-1.22,12.53-3.89a11.19,11.19,0,0,0,3-8.56c-.17-5.85-2.14-9.87-5.84-11.94-7.13-4-17.69-4.34-24.56-.84-11.51,5.87-20.05,18.31-25.37,37-4.2,14.77-5.73,30.86-4.8,50.62.36,7.77.55,15.69.72,23.35.31,13.52.63,27.49,2,41.2,1,10.11,2,20.57,3.14,31l.26,2.37c.7,6.3,1.42,12.81.4,18.89a28.74,28.74,0,0,1-1.09,4.39q-.34,1.07-.78,2.1a5.17,5.17,0,0,1-.91,1.85c-.16.13-3.6-5-3.91-5.44a50.23,50.23,0,0,0-3.62-4.37,15.89,15.89,0,0,0-1.9-1.86c-.28-.23-1.36-.79-1.17-1.27,1.84-4.7,1.69-10.16.84-15.43A23,23,0,0,0,130,177l-.06-.25c-2.58-9.74-10.59-14.07-16.48-21.14a32,32,0,0,1-2.18-2.91c-.6-.91-2.53-.08-3.2.34a17.86,17.86,0,0,0-5.81,6.56,46.11,46.11,0,0,0-2.9,6.41s0,0,0,0c-2.15,4.51-3.68,8.56-3.72,8.65-1.56,4.16-4,13.2-5.85,20-.41,1.08-.81,2.17-1.16,3.26-1.37.85-2.75,1.69-4.17,2.53-4.85,2.05-13.06,5.9-18,10.18q-2.2,1.93-4.17,3.72A65.79,65.79,0,0,0,51,225c-9.41,11.38-13.86,24.8-14.88,39.14l-.08,0a11.78,11.78,0,0,0-4.76,1.37c-1.73.86-4,2-6.48,3.15l-1.33.64c-5.93,2.86-12.82,6.21-16.1,8.29-.44.28-.86.57-1.26.86l-.19.1c-3.14,1.79-6.5,3.67-5.79,6a3.66,3.66,0,0,0,1,1.51,10,10,0,0,0,1.52,1.22c6.42,4.28,13.79,7.41,20.57,11.1l.27.14A46.52,46.52,0,0,0,34.14,303h0a23.23,23.23,0,0,0,4.44,1.17,59.39,59.39,0,0,0,10.66-.36c2.16,2,11.31,10.52,16.18,12.55l1.91.81c3.68,1.56,7.74,3.29,11.5,3.95a16.54,16.54,0,0,0,3,.29h.49c3-.11,8.37-.37,10.74-.57A122.53,122.53,0,0,0,97,345.11c2.53,9.26,6.72,17.91,10.77,26.27,3.68,7.6,7.49,15.45,10,23.66,2.81,9.24,3.95,17.45,3.47,25.1-.2,3.16-.4,6.43-1.66,9.44-.37.87-.8,1.76-1.24,2.67l-.33.68v0l-.13.24c-1.21,2.54-2.49,5.51-2.28,8.47a1.55,1.55,0,0,1-1,.46c-.07-2.67.94-5.11,2.08-7.59l.41-.89-1.57-1.39c-3.28-2.92-7.74-6.9-12.55-6.63a9.36,9.36,0,0,0-6.47,3.51,21,21,0,0,0-4.89,12.08c-.59,6.32.74,11.44,3.83,14.79,2.62,2.84,6.34,4.28,11.08,4.28h.28c6.87-.09,11.91-1.32,16.36-4,.76-.46,1.52-.93,2.27-1.41a54.32,54.32,0,0,1,5-2.95c6.18-3,12.69-3.61,19.57-4.23l1.4-.13h.35l.64-1.15.33-1.25a3.21,3.21,0,0,0-1.56-.21l-1.39.13c-7.14.64-13.88,1.24-20.5,4.49a57.5,57.5,0,0,0-5.29,3.08c-.74.47-1.47.94-2.22,1.39-4,2.43-8.66,3.55-15,3.63-4.08,0-7.25-1.11-9.39-3.43-2.58-2.79-3.67-7.21-3.15-12.76a18.6,18.6,0,0,1,4.25-10.59,6.71,6.71,0,0,1,4.65-2.62c3.69-.27,7.7,3.35,10.63,6l.13.1a17.56,17.56,0,0,0-1.89,8.38c.09,1.31,1.22,2.13,2.76,2.05,1.76-.12,3.59-1.38,3.47-3.19-.16-2.34.86-4.77,2-7.06a2.09,2.09,0,0,0,.47-1l.07-.14c.46-1,.91-1.89,1.29-2.8,1.44-3.42,1.66-6.91,1.87-10.29.49-8-.68-16.49-3.58-26-2.55-8.4-6.41-16.35-10.13-24-4-8.25-8.14-16.79-10.61-25.81-4.46-16.33-5.34-36.1-2.41-54.23,2.57-15.9,10.64-31.77,24-47.18,2.57-3,5.49-5.8,8.3-8.54,7.82-7.6,15.91-15.45,17.89-27.26,1.08-6.45.33-13.14-.39-19.62l-.26-2.36c-1.11-10.38-2.13-20.83-3.13-30.94-1.33-13.61-1.65-27.53-2-41-.17-7.67-.35-15.61-.72-23.41-.92-19.47.58-35.29,4.7-49.78,5.11-17.93,13.2-29.83,24-35.35,6.05-3.09,15.75-2.74,22.08.79,2.83,1.59,4.35,4.86,4.49,9.72a8.72,8.72,0,0,1-2.21,6.64c-2.06,2.1-5.72,3.17-10.61,3.09a4.19,4.19,0,0,0-2.84,1.27,3.81,3.81,0,0,0-.54.71,4.23,4.23,0,0,0-2,.77c-37.34,32.17-28.11,93.2-22.6,129.65,4.21,27.78,12.76,49.5,26.15,66.42,3.75,4.74,7.95,9.11,12,13.34s8.13,8.47,11.82,13.13q2,2.52,3.8,5.19a91.27,91.27,0,0,1,8.59,16.89A176.58,176.58,0,0,1,224.06,290c1.51,5.37,1.56,10.8,1.56,16.33q0,3.72-.18,7.46c-.08,1.6-.11,3.25-.33,4.85-.19,1.36-.21,2.74-.31,4.13a67.55,67.55,0,0,1-1.26,9,102.91,102.91,0,0,1-5.47,17.39c-.91,2.26-1.87,4.49-2.87,6.72-5.22,11.64-11.29,23-15,35.19s-4.76,25.71,0,37.54c.94,2.33,2.11,4.61,2.49,7.1a6.48,6.48,0,0,0,.86,3.1c1.54,2,5.1.33,5.64-2.13s-.81-4.89-2.1-7c3.19-3.42,7.4-7.17,11.91-5.94,2.86.77,4.84,3.4,6,6.1a22.6,22.6,0,0,1,2,10.16,14.63,14.63,0,0,1-2.06,7.3c-3.55,5.53-11.4,6.61-17.73,4.86s-11.81-5.66-17.84-8.24A45.68,45.68,0,0,0,168,440.28c1.47,3,5.63,2.79,8.93,2.93,5.66.23,11,2.62,16,5.19S203,453.8,208.52,455s11.81.54,16-3.22c5.13-4.58,5.89-12.47,4.28-19.15-1.25-5.17-4.38-10.59-9.59-11.66-5.81-1.19-11,3.46-15.16,7.73a20.25,20.25,0,0,1,2.4,8.46c-1-.51-1.16-1.9-1.33-3.05-.38-2.61-1.65-5-2.64-7.44-4.81-11.89-3.08-25.51,1.09-37.64s10.63-23.34,15.44-35.23a138.32,138.32,0,0,0,9.1-35.48C228.36,316.5,228.55,314.65,228.69,312.8ZM94.24,318.19c0-.11,0-.21,0-.31l0,.08A.3.3,0,0,1,94.24,318.19Zm35.06-88.82c-12.74,12.71-22.63,24.21-29.48,39C94.9,279,92.34,291,91.86,306c-.07,2-.1,4-.09,6s0,3.94.13,5.92c-.72.21-1.45.38-2.19.52-1.81.1-4,.21-5.91.29l-.43,0A39.82,39.82,0,0,1,67,313.35a57.23,57.23,0,0,1-19.56-18c-.64-1-3.91.36-3.53.95A56.06,56.06,0,0,0,47.34,301h0a17.12,17.12,0,0,1-1.82.53,41.54,41.54,0,0,1-6.58.05c-2.3-.26-7.69-2.3-12.68-4.7-.94-.51-1.87-1-2.78-1.56s-2.05-1.17-3.05-1.72L19,292.8c-.33-.22-.63-.44-.91-.65-3.93-2.95-10.57-6.07-14-7.59-.21-.08-.4-.17-.58-.25l.2-.23a23,23,0,0,1,5.05-4.24c3-1.88,9.1-4.9,14.68-7.6l2.47-1.18c2.49-1.2,4.78-2.3,6.52-3.17A9.11,9.11,0,0,1,36,266.82c-.05,1.27-.09,2.54-.09,3.82,0,1.57,3.61.82,3.61-.42,0-1.78.05-3.54.15-5.29a16.55,16.55,0,0,0,.45-3.67c.43-6.81,5.67-22.48,9-28.38,2.54-4.45,8.29-10.61,17.54-18.82,4.78-3.41,9.9-6.43,15-9.4,2.36-1.1,4.44-2,5.82-2.53v.34c0,.62-.81,2.38.25,2.35.81,0,3-.09,3.07-1.24a19.56,19.56,0,0,1,.4-2.64,37.77,37.77,0,0,1,1.53-5c.25-.68.51-1.36.77-2,.52-1.34,1-2.68,1.49-4,1.74-5.24,3.23-10.56,4.92-15.82.92-2.87,2-6.4,3.32-9.8a42.42,42.42,0,0,1,3.93-6.33c.75-.94,1.37-1.48,1.79-1.48l.5.48.14.13A48.59,48.59,0,0,0,114,161a89,89,0,0,1,7.39,7.4,25.49,25.49,0,0,1,2.93,4.28,20.63,20.63,0,0,1,1.55,3.75c1.49,4.92,3.07,11,3.24,16.75a57.83,57.83,0,0,1-2.14,9.72s-.41,1.23-.41,1.25c.07-.21,3.75,2.43,4,2.66a17,17,0,0,1,4.43,4.78,44.1,44.1,0,0,1,3.16,6.66,1,1,0,0,0,.41.52A76.22,76.22,0,0,1,129.3,229.37Zm97.51,83.81a.3.3,0,0,1,0-.23l0-.08C226.82,313,226.81,313.07,226.81,313.18Z"/><path class="edce0c5d-4576-4e05-9e74-1677f914b6fa" d="M73.79,258.7c-5-.56-9.44,3.55-12.76,6.79-5.47,5.32-7.82,11.85-9,19.27-.23,1.45,3.29.85,3.49-.41A38.07,38.07,0,0,1,60,270.77c.32-.54.77-1.19,1.29-1.89a2,2,0,0,0,.69-.27c4.24-2.79,8.59-5.41,12.6-8.54C75.42,259.39,74.5,258.78,73.79,258.7Z"/><path class="edce0c5d-4576-4e05-9e74-1677f914b6fa" d="M88.56,246.21c3.39-5.27,5.47-9.77,6-16v0a33.72,33.72,0,0,1,14.06-13.93c1.47-.81-2-.39-2.65-.06-6,3.28-11.23,7.59-14.4,13.75-2.72,5.29-6.55,10.86-6.51,17C85.11,247.73,88.26,246.68,88.56,246.21Z"/><path class="edce0c5d-4576-4e05-9e74-1677f914b6fa" d="M150.86,268.5c-6,19.44-5.11,40.75-4.71,60.87.47,24,2.47,47.94,2.54,71.95,0,1.61,3.57.89,3.57-.39-.07-23.28-1.84-46.5-2.5-69.76-.5-18.11-1.28-37.35,2.63-55.28,1,8-.19,15.6-2.4,23.76-.38,1.42,3.21.91,3.57-.4,2.93-10.8,4.15-20.57.86-31.43C154,266.41,151.18,267.45,150.86,268.5Z"/></g></g></svg>