<svg xmlns="http://www.w3.org/2000/svg" viewBox="0 0 282.54 304.07"><defs><style>.b9fa5333-cc72-4166-844e-871769c1da39{fill:#231f20;}</style></defs><g id="f1ae7a95-9b89-488b-99f8-5204670ae55c" data-name="Layer 2"><g id="f8adb5bf-c253-4a41-af14-0595453e95e7" data-name="Kip"><path class="b9fa5333-cc72-4166-844e-871769c1da39" d="M99.06,240.55a3,3,0,0,1-2,.55,102.51,102.51,0,0,1-20.91-4.6,22.81,22.81,0,0,1,0,7.86A17.77,17.77,0,0,1,65.77,257.6c-.37.16-1.6.49-1.91,0s.37-.93.79-1.1c5.06-2.13,8-7.59,8.69-12.83.87-6.59-1.62-13.17-4.74-18.84-.41-.74,2.38-1.71,2.9-.78a42.67,42.67,0,0,1,4.14,10.19h0a99.79,99.79,0,0,0,23.18,5.47C99.45,239.8,99.49,240.2,99.06,240.55Z"/><path class="b9fa5333-cc72-4166-844e-871769c1da39" d="M78.94,287.11a139.27,139.27,0,0,0-15.65,14,2.67,2.67,0,0,1-1.92.77,1.54,1.54,0,0,1-.47-.09,2.54,2.54,0,0,1-1.58.41l.37.25c1.24.82-1.4,2.07-2.28,1.49L35.12,289.1c-1.23-.82,1.41-2.07,2.28-1.49l21.07,14a.84.84,0,0,1,0-.32,112.86,112.86,0,0,0-.32-36.86c-.23-1.34,2.67-2.06,2.9-.78a114.9,114.9,0,0,1,.48,36.5,140.7,140.7,0,0,1,15.12-13.44,2.76,2.76,0,0,1,2-.55C79.24,286.29,79.43,286.74,78.94,287.11Z"/><path class="b9fa5333-cc72-4166-844e-871769c1da39" d="M100.69,231.16c-.38,6.38-.58,13.19,2.37,19.05,2.38,4.73,6.76,8.5,12.15,9a1.9,1.9,0,0,0,1.89-.88c.27-.65-.25-1.14-.88-1.2-4.87-.5-8.75-4.33-10.69-8.63-2.48-5.49-2.26-11.73-1.91-17.6.09-1.49-2.85-1.07-2.93.22Z"/><path class="b9fa5333-cc72-4166-844e-871769c1da39" d="M121.2,264.74a24.46,24.46,0,0,0,18.56-5.17,21.63,21.63,0,0,0,6.05-7.54c1.86-3.87,2.49-8.21,3.29-12.39L152,224.57c.19-1-2.71-.54-2.89.39l-2.92,15.31c-.88,4.58-1.56,9.46-4,13.52A19.53,19.53,0,0,1,123,263.25a2.63,2.63,0,0,0-2,.54c-.4.39-.39.86.25.95Z"/><path class="b9fa5333-cc72-4166-844e-871769c1da39" d="M136.18,282.23a24.93,24.93,0,0,0-8.36,5v.63c0,.35-.32.63-.75.83,0,.2-.88.62-1,.65a3.07,3.07,0,0,1-1.86.21,41.5,41.5,0,0,1-15.13-8.52c-.34-.3.7-.67.89-.74.39-.13,1.49-.53,1.85-.21a41.32,41.32,0,0,0,13,7.77l.11,0v-20.7c0-1,2.9-1.54,2.9-.77v18.95a29.4,29.4,0,0,1,7.36-3.81c.31-.11,1.56-.53,1.87-.18S136.42,282.14,136.18,282.23Z"/><path class="b9fa5333-cc72-4166-844e-871769c1da39" d="M124.92,287.8v.14l-.11,0S124.88,287.81,124.92,287.8Z"/><path class="b9fa5333-cc72-4166-844e-871769c1da39" d="M179.28,14.46c.08,6.06-5.67,12.21-11.91,11.3a2.57,2.57,0,0,0-2.05.55c-.41.39-.36.93.28,1,8,1.18,16.68-5.23,16.58-13.64,0-.9-2.91-.35-2.9.77Z"/><path class="b9fa5333-cc72-4166-844e-871769c1da39" d="M189.57,5.09a14.88,14.88,0,0,1,8.74,12.73A14.33,14.33,0,0,1,190.48,31c-.47.23-1.13.78-.72,1.34s1.45.38,2,.14c5.5-2.66,9.54-8.34,9.53-14.56a16.1,16.1,0,0,0-9.4-14.43,2.16,2.16,0,0,0-2.07.22c-.38.28-.87,1-.2,1.34Z"/><path class="b9fa5333-cc72-4166-844e-871769c1da39" d="M199.47,1.84C206,4.53,214.41,8,217.13,15.16c1.84,4.85.78,13.11-5.3,14.31-.5.1-1.38.62-1.21,1.25s1.19.57,1.67.47c5.41-1.07,8.51-6.24,8.6-11.49.12-6.37-4-11.21-9.15-14.51A65.37,65.37,0,0,0,201.19.08c-1.06-.44-3.37,1.08-1.72,1.76Z"/><path class="b9fa5333-cc72-4166-844e-871769c1da39" d="M210.55,34.69a65,65,0,0,1,35.38,21,63.92,63.92,0,0,1,6.88,9.61c.65,1.11,3.42,0,2.66-1.27a67.21,67.21,0,0,0-32.1-27.78,65.75,65.75,0,0,0-11.81-3.61c-1.41-.3-2.93,1.68-1,2.08Z"/><path class="b9fa5333-cc72-4166-844e-871769c1da39" d="M279.91,88.07a36.61,36.61,0,0,0-39.27.79,2,2,0,0,1-2.07.2c-.56-.4-.31-1,.18-1.39a40.72,40.72,0,0,1,40.63-2.74,38.72,38.72,0,0,0-13.26-13c-5.86-3.28-13.19-4.49-19.55-2-.54.21-1.54.42-2-.17s.19-1.19.71-1.4a26.86,26.86,0,0,1,21.62,1.18c6.5,3.19,11.63,8.66,15.47,14.71.47.74-.41,1.42-1.3,1.6.36.2.7.41,1.05.62C283.5,87.29,280.91,88.68,279.91,88.07Z"/><path class="b9fa5333-cc72-4166-844e-871769c1da39" d="M250.24,75.69c.51,0,1.65-.22,1.93-.71s-.26-.56-.71-.56-1.65.22-1.93.72.26.55.71.55Z"/><path class="b9fa5333-cc72-4166-844e-871769c1da39" d="M240.33,91.49c7,1.63,8,11,4.51,16.14-4.79,7-14.64,9.07-22.54,9.34a46.22,46.22,0,0,1-16.21-2.35,2.81,2.81,0,0,0-2,.32c-.3.17-1,.71-.31.93a50.08,50.08,0,0,0,31.35,0c7.4-2.47,15.85-8.25,14.59-17.14-.56-3.89-3-7.55-7-8.47a2.88,2.88,0,0,0-2,.32c-.26.14-1,.76-.31.92Z"/><path class="b9fa5333-cc72-4166-844e-871769c1da39" d="M218.39,108.7a21.22,21.22,0,0,0,19.46-5.22.84.84,0,0,0-.37-1.4,2,2,0,0,0-2,.55,17,17,0,0,1-15.36,4.12,2,2,0,0,0-2,.55.84.84,0,0,0,.37,1.4Z"/><path class="b9fa5333-cc72-4166-844e-871769c1da39" d="M210.84,69.78a36,36,0,0,1,12-4.93c.38-.08,1.41-.46,1.29-1s-1.31-.29-1.62-.22a40.53,40.53,0,0,0-13.39,5.49c-.34.22-.9.7-.29,1a2.58,2.58,0,0,0,2-.31Z"/><path class="b9fa5333-cc72-4166-844e-871769c1da39" d="M179.37,197.79c-4.61,12-13.84,22.35-26.42,26-1.79.52-2.29-1.45-.52-2a31.84,31.84,0,0,0,4.22-1.55c11.36-5.18,18.79-16.7,21.76-28.52,3.73-14.79.37-30.28-4.95-44.24a226.64,226.64,0,0,0-10.08-22.16,234,234,0,0,0-12-21.06c-4.21-6.49-8.74-13-14.3-18.46a39.4,39.4,0,0,0-18.44-10.1c-13.78-3.3-28.43-.43-42,2.41-.56.12-1.52.12-1.71-.59a.17.17,0,0,1,0-.07A83.26,83.26,0,0,0,42.45,91.83a85.93,85.93,0,0,0-24.18,26.84c-7.09,12.46-10.59,26.59-12.5,40.7-1,7.12-1.55,14.29-2,21.45-.51,7.58-1.16,15.23-.66,22.82.72,11,4.9,23.31,14.64,29.16.17-5.22.6-10.46.14-15.57-.09-1,2.82-1.63,2.9-.78.54,5.94-.05,11.88-.15,17.82v.14c0,.51,0,1,0,1.54a38.39,38.39,0,0,0,2,13.17,27.76,27.76,0,0,0,6.61,10.13c5.73,5.67,13.89,9.19,22,8.48.43,0,1.25-.08,1.23.55s-1.23.9-1.66.94a30.59,30.59,0,0,1-31.1-19.32c-1.75-4.76-2.08-9.72-2-14.74-.67-.3-1.33-.63-2-1C3.29,227.14,0,211.92,0,198.77c0-7.81.68-15.66,1.29-23.44.59-7.42,1.37-14.83,2.66-22.17,2.46-14,6.93-27.79,15-39.64A88.69,88.69,0,0,1,46,88a89.88,89.88,0,0,1,29.46-11.5h0a1.71,1.71,0,0,1,.61-.27c1.78-.37,3.56-.74,5.35-1.09,14.14-2.75,29.59-4.93,43.51.09a43.55,43.55,0,0,1,17.89,12.66c1.93,2.19,3.76,4.49,5.5,6.85a25,25,0,0,0-1-18q-.47-1-1-2c-.06-.29-.11-.57-.15-.86a28.44,28.44,0,0,1-.07-8.64,32.86,32.86,0,0,1,25.28-27.16c.32-.07,1.17-.2,1.16.29s-1.37.73-1.69.79a24.49,24.49,0,0,0-9.18,4.26c-9.34,6.8-14.66,19.1-12.46,30.5a26,26,0,0,1,1.92,20.79,1.78,1.78,0,0,1-1.62,1.07,1.76,1.76,0,0,1-.39,0c2.89,4,5.55,8.15,8.09,12.33,4.36,7.19,8.27,14.65,11.95,22.21a173.15,173.15,0,0,1,9.57,23.12C183.29,167.82,184.88,183.44,179.37,197.79Z"/><path class="b9fa5333-cc72-4166-844e-871769c1da39" d="M180.69,140.8A28.84,28.84,0,0,0,191,127.07c1.07-3.08,1.4-6.36,2.43-9.45.85-2.53,2.65-6,5.6-6.46.37-.06,1.66-.35,1.68-.87s-.82-.47-1.19-.41a10.56,10.56,0,0,0-7.24,4.62c-1.95,2.92-2.45,6.4-3.23,9.75a27.75,27.75,0,0,1-10.62,16.32c-.5.36-.3.66.21.78a3,3,0,0,0,2.05-.55Z"/><path class="b9fa5333-cc72-4166-844e-871769c1da39" d="M92.92,128.18a42,42,0,0,0,28.3-4.91,46.59,46.59,0,0,0,5.89-4.15c.1-.08,1.15-.59.61-.53s.26.16.4.22a3.66,3.66,0,0,1,1.25,1,6.21,6.21,0,0,1,1.33,3.41c.45,4-1.85,7.62-4.28,10.63-3,3.66-6.42,7-8.58,11.21-.16.29.34.35.5.37,6.42.85,14.38,2.21,16.9,9.14,1,2.65.94,5.92-1.11,8.07-2.34,2.45-6.12,2-9.18,1.66a3.17,3.17,0,0,0-2,.55c-.4.35-.43.62.19.69,3.85.4,8,.45,11.51-1.46a7.79,7.79,0,0,0,4-8.35c-1.4-8.75-11.15-10.57-18.44-11.54l.5.37c2-3.9,5.16-7,7.93-10.36,2.43-2.94,4.85-6.27,5-10.23a6.93,6.93,0,0,0-2-5.66c-1.7-1.45-4.25-1-6,.14-1,.63-1.86,1.48-2.8,2.18a34.79,34.79,0,0,1-3.32,2.21A34.86,34.86,0,0,1,95.29,127a3.33,3.33,0,0,0-2,.36c-.22.12-1,.68-.34.8Z"/></g></g></svg>