<svg xmlns="http://www.w3.org/2000/svg" viewBox="0 0 250.96 221.98"><defs><style>.a02e969c-f86f-40df-9fe0-393f68493e01{fill:#1d1d1b;}.e218b78a-ce10-46e4-9399-dd38f5d34886{fill:#fff;}</style></defs><g id="a18e2b0c-b91b-47e7-ab95-f74d86048ffc" data-name="Layer 2"><g id="b3daaa5e-c211-49a9-8ca8-7cc145bdcb17" data-name="Layer 1"><path class="a02e969c-f86f-40df-9fe0-393f68493e01" d="M211.85,80.91,110.34,17.3a5.77,5.77,0,0,0-6.12,0L2.7,80.91A5.76,5.76,0,0,0,0,85.79v2.65A5.76,5.76,0,0,0,5.76,94.2H20.58A5.76,5.76,0,0,1,26.34,100V216.22A5.76,5.76,0,0,0,32.1,222H182.45a5.76,5.76,0,0,0,5.76-5.76V100A5.76,5.76,0,0,1,194,94.2h14.82a5.76,5.76,0,0,0,5.76-5.76V85.79A5.76,5.76,0,0,0,211.85,80.91Z"/><path class="e218b78a-ce10-46e4-9399-dd38f5d34886" d="M127.32,26.44c.32-1.26,1.24-2.73,1.6-4A19.16,19.16,0,0,1,131.31,17c2.54-4.21,5.45-6.77,9.86-8.07,11.26-1,11.29,5.63,11.29,5.63s1.19,5.6-6.92,6.39c0,0-7,4.21-9.76,12C134.17,35.66,129,49,132.72,69.49c-.09,2,.58,23.87,15.43,41.77-1.56-7.72-8.71-24.69-7.36-33.55.39-4.85,1.78-12.83,13.17-24.7,4.22-3.34,7.85-6.22,11.3-9.41,1.39-1.27,3.48-2.89,4.17-5.45a29.05,29.05,0,0,0,.95-5.43c0-.11-.12-2.87-.11-3,.39-3.92-1.07-7-1.7-10.86-.65-4-1-6.82-1.87-10.82-.65-3.14-1.2-8.34-.8-7.72a13.75,13.75,0,0,1,1.75,3.77c1.34,6.6,3.08,11.67,4.73,18,1.25,4.79,2.7,10.34,3.93,15.14.08.31.34,1,.42,1.33.16.66,1.75-.63,2.69.11,1.19.94,2.93,5.34,8.66,7.85.14.14,5.47-4.77,8.59-5.88.28-.14-1.36-8.45-1.77-10.43-.1.09-3.06-.14-4.05,5.37-.34.25-.34,3.43-5.83,3.69-.3-.07-3.26,0-3.3-3.93.5-4,5.43-12.13,5.43-12.13a13,13,0,0,1,8.64-5.68c5.74-.57,9,1,10.07,2.61s1.49,4.88-.08,6.45-4.2,2.18-3.5,12.84c0,0,9-.41,12.74.61.16,0,1.21-1.15,1.32-1.24a40.16,40.16,0,0,1,4.54-3.71c.88-.54,1.62-1.19,2.48-1.77a23.63,23.63,0,0,0,5.53-5.92c.49-.7,4.6-2.8,9-2.7s6,.18,7.66,3.06,6.54,10.08,5.2,14.62c-.51,1.73-.24,3.14-2.21,4.22a12.15,12.15,0,0,1-5.4,1c-3.49-.8-3.89-1.1-6-4.71-2.68-7.87-5.79-6.78-7.83-7.21-3.85-.81-6.74,7.4-6.74,7.4s8.29,4.06,9.12,11.5c1.08,9.7,2.91,12,4.47,13.78,0,0,4.27,4.63,5.64,6.16a4.3,4.3,0,0,1,1,2.84,13.84,13.84,0,0,1-1,3.75,15.4,15.4,0,0,1-2.82,8,63,63,0,0,1-9.35,9.68,31.37,31.37,0,0,1-9.31,5.24,15.42,15.42,0,0,1-10.66-.89c-2.4-1-5.47-4.49-6.7-6.75.08.14-1.76,4-1.82,4.15-.39.83-1,2.9-1.39,3.73-1.23,2.53-1.87,4.65-3.09,7.18s-1.52,4.62-2.65,7.25a80.09,80.09,0,0,0-3.85,12,84.19,84.19,0,0,0-1.79,12.57c-.23,2.2-.53,5-.58,7.23s-.32,3.29.32,5.34a25.88,25.88,0,0,1,1.19,3.47,9.83,9.83,0,0,0,2.6-.87,4.73,4.73,0,0,1,2.39.09c-.7-.24,6-14.16,6.27-14.78,1-2.18,2.76-5.65,3.9-7.78,0,0,4.39-10.1,10.14-11.48.1,0,7.43-1.49,9.28,7.78s.7,12.65-3.3,15.82c-5.43.84-6.89-1.72-6.91-9.11a5.07,5.07,0,0,0-2.47.33c-1.52.51-6,3.28-8.76,21.95.19.1,3.8,3.35,5.12,3.94.65.29,5.44-4.9,5.77-5.27a27.15,27.15,0,0,1,4.53-4.24c2-1.45,3.6-1.61,6.07-1.24,1.94.3,2.78,1.52,3.92,3.11s1.52,4.09,1.8,6.16c.34,2.49.16,4.23.56,6.72a40.38,40.38,0,0,0,2.14,7,38.74,38.74,0,0,1,1.85,8.16c0,3.34.69,6.47-.56,9.67-1.18,1.91-1.56,2.47-4,3a3.66,3.66,0,0,1-3.56-3.2c-.6-4-1.88-14.47-4.07-18.27.2.4-2.53-6.64-.9-9.85,2-3.91-2.31-2.52-2.31-2.52s-7.44,2.81-7.45,7.72c.1.27,2.16,10.7-1.31,15.25s-10.15,10.91-18.38,6.94c.1.1-2.8,5.74-3.08,6.52,1.2.44,3.49.13,4.25.28a22.24,22.24,0,0,1,4.08,1.44c4.26,2.25,5.67,6.94,4,11.32-2.1,2.54-5.56,1.51-8.52,1a55.58,55.58,0,0,0-14.54-1.62c-.22-2.64-1.24-3.48-10.68-1.82-8.51,1.63-9,3.2-16.36,6.47,0,0-11.62,5.44-15.75,1-3.38-4.79-.9-8.45-.9-8.45s-7.88-.09-12.47,2.38c-4.4,2.38-3.26,3-10.83,3.79-7.07.11-7.23-7.48-6.51-10s1.85-4.91,4.91-5.67c1.54.34,4.36,1.47,5.42,3.86.48,1.09-.27,2.67-.67,4.07,0,0,.64.91,1.39-.76,1.08-2.45,2.77-8.08,2.59-10.57-.25-3.46-.8-12.84-8.17-24.52a108.42,108.42,0,0,1-4.9-19.77s-12.17,1.28-19.63-7.59c-.14-.06-9.84.12-15.32-4.43,0,0-6.28-2.68-7-4.12s5.17-3.8,16.6-8.87c-.27.14.76-11.32,7.27-18.4S103,98.8,103,98.8l4.4-14.69,2.94-5.31L113,77.66a12.86,12.86,0,0,0,1.84,2.28c1.75,1.72,6.78,6.41,7.31,11.92a23.37,23.37,0,0,1-.4,8.42c.07.41,5.21,5.9,5.21,6.24s3.31-3.38,1.39-14.74a179.82,179.82,0,0,1-2.21-26.9c.12-4.77-.07-10-.24-14.79s-.67-8.25,0-12.88C126.35,33.84,126.48,29.75,127.32,26.44Z"/><path class="a02e969c-f86f-40df-9fe0-393f68493e01" d="M176.44,210.74A40.92,40.92,0,0,0,165,211.92h0c-.84.22-1.67.49-2.49.79-1.39.53-2.75,1.13-4.11,1.77-2.09,1-4.17,2-6.31,2.87-4.81,1.94-11.83,5.9-16.63,2-4.56-3.76-2-10.27,2.56-12.49a16.9,16.9,0,0,1,8.17-1.69c2.69.1,5.41.1,8.12.22l1.23.06.41,0c.46,0,.92.06,1.38.1s.78.06,1.18.11c1.11.12,0,1-.67,1l-.84-.07c-.83-.07-1.67-.12-2.51-.14-2.27-.09-4.55-.08-6.82-.2-3-.16-6.36-.14-9,1.38a7.43,7.43,0,0,0-2,1.59,6.55,6.55,0,0,0-.23,8.89c2.78,3,7,1.76,10.33.44,2.74-1.1,5.54-2.18,8.24-3.41.61-.28,1.22-.58,1.83-.88l1.92-.95h0a28.4,28.4,0,0,1,4.08-1.67l1.2-.34c.54-.15,1.09-.29,1.64-.41a47,47,0,0,1,11.49-1.09C178.23,209.79,177.1,210.76,176.44,210.74Z"/><path class="a02e969c-f86f-40df-9fe0-393f68493e01" d="M171.7,177.94a12.25,12.25,0,0,0-4,5.75,5,5,0,0,0-.29,1.31c0,.6,0,.69-.06.88.21-.39.42-.8.67-1.18s2-.53,1.56.18c-.59.87-.91,2.15-2,2.46a1.36,1.36,0,0,1-1.81-1.36c-.16-3.26,2.24-6.48,4.61-8.49C170.85,177.09,172.47,177.29,171.7,177.94Z"/><path class="a02e969c-f86f-40df-9fe0-393f68493e01" d="M207.69,184.18c.17.64-1.49,1-1.68.37a5,5,0,0,0-.71-1.56,5.68,5.68,0,0,0-1-1.18,6.27,6.27,0,0,0-3.84-1.53c-1.12-.05,0-1,.66-1a7.54,7.54,0,0,1,5,2.18A6.34,6.34,0,0,1,207.69,184.18Z"/><path class="a02e969c-f86f-40df-9fe0-393f68493e01" d="M132.09,143.87c-.15.59-1.78.83-1.61.18a27,27,0,0,0,1.09-10.74c-1.77,8.11-1.42,16.8-1.19,25,.3,10.51,1.1,21,1.13,31.52,0,.58-1.61.91-1.61.18,0-10.85-.94-21.67-1.16-32.52-.17-9.09-.57-18.72,2.14-27.5.14-.47,1.41-.95,1.61-.31C134,134.58,133.42,139,132.09,143.87Z"/><path class="a02e969c-f86f-40df-9fe0-393f68493e01" d="M233.44,86.72s-.6-2.18-5.14-5.76S217.1,71.83,225,69.15s18.16,3.87,17.76,8.24a9.52,9.52,0,0,1-4.95,7.94,12.77,12.77,0,0,1-4.34,1.39Z"/><path class="a02e969c-f86f-40df-9fe0-393f68493e01" d="M250.76,38.41c-.53-4.31-3.21-8.28-5.77-11.65-2.28-3-5.77-2.37-9.07-2-3.89.38-6.1,1-8.38,4.39-3,4.51-8.42,6.54-12.23,10.32-.21.21-.21.36-.09.46a49.93,49.93,0,0,0-12.56-.66l-.27,0c-.57-4.92-.33-9,3.39-12.63,2-1.92,1-6.62-1.39-7.86-4.68-2.38-12.13-1.71-15.61,2.32-2.4,2.78-4.28,6.68-5.8,10-1,2.13-2.1,5.22-.34,7.24,1.43,1.65,4.83.93,6.39-.06,2.77-1.77,1.6-6.47,4.87-7.74,1.09-.42.09-.93-.64-.65a4.91,4.91,0,0,0-2.92,2.69c-.39.9-.68,1.84-1,2.77-.75,2.32-4,4.44-5.64,1.72-1.07-1.85.26-4.85,1.1-6.54a83.08,83.08,0,0,1,4.52-8.09c2.29-3.5,5.3-4,9.23-3.89s6.71,2,6.58,6.39c0,1.35-1.5,2.08-2.27,3a9.69,9.69,0,0,0-2,3.63,19.75,19.75,0,0,0-.23,7.89,21.32,21.32,0,0,0-2.56.56c-.42-2.83-1.14-5.6-1.49-8.45-.16-1.24.5-4.4-.79-5.26-2.4-1.61-5.85-.29-7.17,2.1-.09.16,1.41.09,1.63-.31,1-1.74,3.58-2.45,4.45-.45.39.9.11,2.42.14,3.37.09,3.21,1.1,6.36,1.58,9.53a17.92,17.92,0,0,0-7.93,5.4c-.64.82.94,1,1.38.44,3.89-4.93,10.67-6.24,16.59-6,5.4.18,10.84.85,15.6,3.55,5,2.81,7.46,7.51,8.4,13,.67,3.91,1.38,9.08,4.28,12.07.5.51,2.07-.15,1.52-.71-4.17-4.3-3.45-11.68-5.48-16.92-1.84-4.76-6.1-8-10.65-9.91A25.87,25.87,0,0,0,215.84,40a1.38,1.38,0,0,0,.82-.27c2.75-2.73,6.2-4.47,9.16-6.93a16.45,16.45,0,0,0,3.28-3.64c1.32-1.95,2.27-3,4.77-3.34.82-.11,1.66-.12,2.49-.2,2.39-.23,4.61-.62,6.54,1.16a21.56,21.56,0,0,1,2.9,4c2.59,3.86,4.33,8.76,3.12,13.41-.74,2.83-4.92,2.47-7.08,2-1.88-.43-2.62-2.4-3.23-4a27.4,27.4,0,0,0-3.32-6.11c-2.53-3.55-6.31-5.18-9.83-2-.74.66.91.72,1.34.33,6.18-5.58,9.67,10.62,13.31,12.46,2.25,1.14,5.73.78,8-.11C251.37,45.51,251.12,41.24,250.76,38.41Z"/><path class="a02e969c-f86f-40df-9fe0-393f68493e01" d="M208.38,60.15c.82-.15,1.65-.32,2.49-.49,0,.1.2.17.48.17a51.89,51.89,0,0,0,7.88-.4,1,1,0,0,0,.25-.08l.27.08c.44.13,1.93-.54,1.35-.72a10.65,10.65,0,0,0-1.08-.27c-.09-.12-.29-.19-.62-.13h-.07a21.47,21.47,0,0,0-7.09.4h-.3a1.14,1.14,0,0,0-.52.15l-2.77.54C207.94,59.53,207.23,60.36,208.38,60.15Z"/><path class="a02e969c-f86f-40df-9fe0-393f68493e01" d="M228.66,61.12c.54.32,2-.44,1.3-.88a7.87,7.87,0,0,0-4.4-1.3c-.88,0-1.32,1.11-.18,1.06A6.18,6.18,0,0,1,228.66,61.12Z"/><path class="a02e969c-f86f-40df-9fe0-393f68493e01" d="M170.85,59.35a57.13,57.13,0,0,0-1.42,11.2c0,.81,1.67.52,1.68-.16a56.37,56.37,0,0,1,1.41-11.2C172.68,58.44,171,58.67,170.85,59.35Z"/><path class="a02e969c-f86f-40df-9fe0-393f68493e01" d="M218.55,99.62c-1.24,0-1.48-1.14-1.15-2.15a3.14,3.14,0,0,1,2.06-1.91,5.07,5.07,0,0,1,3.62.07,6.27,6.27,0,0,1,1.21.75c.17.13-.19.67-.61.52s-1.12-.3-1.28-.32a3.51,3.51,0,0,0-2.33.19c-.49.28-1.16,1.08-.72,1.65.1.14.48.26.55.3.3.17.38.36.24.53a4,4,0,0,1-1.59.37Z"/><path class="a02e969c-f86f-40df-9fe0-393f68493e01" d="M226.08,59.67l-.3-.05h-.11s-.12,0,0,0,0,0,0,0-.06,0-.07-.07a.83.83,0,0,1-.08-.28l-.94.63a7,7,0,0,1,5.22,1.31,1.22,1.22,0,0,0,1.07,0c.12-.06.74-.4.45-.6a8.54,8.54,0,0,0-6.49-1.51c-.24,0-1,.22-.94.62a.81.81,0,0,0,.44.64,3.38,3.38,0,0,0,.78.16,1.54,1.54,0,0,0,1.15-.31c.25-.22.19-.45-.14-.51Z"/><path class="a02e969c-f86f-40df-9fe0-393f68493e01" d="M231.58,35.94a4.59,4.59,0,0,0-5.65.18,13.3,13.3,0,0,0-3.57,4.75c-.41.81-.79,1.64-1.13,2.48-.12.31.54.26.67.24.29-.05.82-.18.95-.49a26.31,26.31,0,0,1,2-4.12,12.32,12.32,0,0,1,1.59-2.08,6.72,6.72,0,0,1,.86-.74,3.44,3.44,0,0,1,.38-.22c.14-.08,0,0,.15-.07l.11,0c.13,0-.19.05,0,0,0,0,.14,0,0,0h.26a2.9,2.9,0,0,1,.43.06,3.6,3.6,0,0,1,1.3.68c.27.21.78.06,1.06,0,.12,0,.72-.34.46-.54Z"/><path class="a02e969c-f86f-40df-9fe0-393f68493e01" d="M124.53,103.54a.14.14,0,0,1,0,.14c0-.07,0-.13,0-.19A.08.08,0,0,1,124.53,103.54Z"/><path class="a02e969c-f86f-40df-9fe0-393f68493e01" d="M205.22,100.63c0-.07,0-.13,0-.19s0,0,0,0A.22.22,0,0,0,205.22,100.63Z"/><path class="a02e969c-f86f-40df-9fe0-393f68493e01" d="M199.83,177.62c0,.61-1.68.84-1.67.37.05-2-2-3.67-3.87-4.35a4.82,4.82,0,0,0-1-.28c-.34-.06-.37-.35-.11-.55a1.56,1.56,0,0,1,1-.27.47.47,0,0,1,.17,0C196.58,172.91,199.9,175,199.83,177.62Z"/><path class="a02e969c-f86f-40df-9fe0-393f68493e01" d="M203,96.64a14.8,14.8,0,0,0,12.6,8c7.13.18,13.27-4.78,18.34-9.78,3.2-3.17,6.39-6.7,7.52-11,0-.22.11-.44.15-.66a96,96,0,0,1-9,11.18c-3.28,3.47-6.95,6.78-11.48,8.31s-10.05.89-13.25-2.65c-1.4-1.55-2.4-3.65-4.34-4.4,1.53-8.12,3.06-16.38,2.18-24.6s-4.49-16.53-11.32-21.16c-4.66-3.17-10.86-4.78-13.52-9.75-.55-1-2.08-2.22-2.51-1.14,2.4,6.36,10.27,8.3,15.69,12.41,4.91,3.73,7.94,9.52,9.36,15.52,2.65,11.23.1,23-3.69,33.94s-8.83,21.39-11.39,32.64a76.65,76.65,0,0,0-1.85,20.26,29.85,29.85,0,0,0-3.29-2,7.25,7.25,0,0,0-2.11-7.19,6.39,6.39,0,0,0-7.59-1l-.33.17a13.22,13.22,0,0,0-3.39,2.68c.14-20.07.67-40.13.68-60.18,0-.46-1.66-.16-1.66.44,0,19.82-.53,39.63-.67,59.45a9.34,9.34,0,0,0-1.82-.17c0-9.81-5.84-20.55-12.15-27.66-1.59-1.79-3.11-3.56-4.54-5.34-.8-3.26-1.7-6.5-2.74-9.71-1.25-3.87-2.53-7.86-3.59-11.88a37.86,37.86,0,0,1-1.13-16.25c1-5.65,3.92-11.34,9-17.39a74.27,74.27,0,0,1,9.79-9.1c2.46-2,5-4.14,7.36-6.46s2.87-5.61,3-8.42A67.17,67.17,0,0,0,170,19.84l-.18-1.16c-.31-1.87-.62-3.75-1-5.62.19.71.38,1.44.56,2.15.37,1.43.73,2.88,1.1,4.31.68,2.72,1.38,5.55,2.19,8.3.45,1.61.85,3.27,1.24,4.89a66.56,66.56,0,0,0,2.24,8l1.13-.42a66.73,66.73,0,0,1-2.19-7.82c-.4-1.63-.8-3.33-1.27-5-.78-2.73-1.49-5.54-2.17-8.26-.37-1.44-.73-2.87-1.09-4.32C169.32,10.19,168,5.12,166.47,0L165.3.27c.29,1.64.59,3.27.88,4.91.81,4.48,1.65,9.12,2.39,13.69l.19,1.16a66.67,66.67,0,0,1,1.31,13.62c-.12,2.58-.52,5.5-2.63,7.62-2.3,2.29-4.83,4.37-7.29,6.39a76.33,76.33,0,0,0-9.93,9.25c-5.27,6.22-8.32,12.09-9.33,18A39.29,39.29,0,0,0,142,91.64c1.07,4,2.37,8.06,3.62,11.94q1.18,3.65,2.3,7.31c-7.12-9.26-12-18.77-13.86-31.3-3.33-22-5.31-44.49,9.77-57.5a2.41,2.41,0,0,1,.6-.12l.59,0v-.53a.69.69,0,0,1,.47-.29c2.59,0,4.48-.55,5.67-1.76a5.08,5.08,0,0,0,1.33-3.87c-.07-2.64-1-4.46-2.64-5.4a12.81,12.81,0,0,0-11.1-.37c-5.2,2.65-9.06,8.27-11.46,16.71-1.9,6.67-2.59,13.94-2.17,22.87.17,3.51.24,7.09.32,10.55.14,6.11.29,12.42.9,18.62.45,4.57.91,9.3,1.41,14l.12,1.06a31.42,31.42,0,0,1,.18,8.54,12.19,12.19,0,0,1-.49,2c-.1.32-.22.64-.35,1a2.63,2.63,0,0,1-.41.84c-.11,0-1.63-2.28-1.77-2.46a23.8,23.8,0,0,0-1.63-2,7.48,7.48,0,0,0-.86-.83c-.13-.11-.62-.36-.53-.58a13.41,13.41,0,0,0,.37-7,10.25,10.25,0,0,0-1-4.38c0-.05,0-.08,0-.12-1.17-4.4-4.8-6.36-7.45-9.55a16.22,16.22,0,0,1-1-1.32c-.27-.41-1.14,0-1.45.16a8,8,0,0,0-2.62,3,20.94,20.94,0,0,0-1.31,2.9s0,0,0,0c-1,2-1.66,3.86-1.68,3.91-.71,1.87-1.84,6-2.65,9-.18.49-.36,1-.52,1.47-.62.38-1.25.77-1.88,1.14a33.43,33.43,0,0,0-8.11,4.6l-1.89,1.68A28.8,28.8,0,0,0,79,128h0a5.46,5.46,0,0,0-2.15.62l-2.93,1.43c-.19.08-.39.18-.59.28-2.69,1.29-5.8,2.81-7.28,3.75l-.57.38-.09.05c-1.41.81-2.93,1.66-2.61,2.73a1.59,1.59,0,0,0,.44.69,5,5,0,0,0,.69.55c2.89,1.93,6.22,3.35,9.29,5l.13.07a20.73,20.73,0,0,0,4.82,2h0a10.19,10.19,0,0,0,2,.53,27.08,27.08,0,0,0,4.82-.16c1,.92,5.12,4.75,7.32,5.67l.86.36a25.23,25.23,0,0,0,5.2,1.79,7,7,0,0,0,1.35.13h.23c1.37,0,3.78-.17,4.85-.26a55,55,0,0,0,1.77,11,69.36,69.36,0,0,0,4.87,11.88,73.42,73.42,0,0,1,4.5,10.69,31.92,31.92,0,0,1,1.58,11.34,13.28,13.28,0,0,1-.75,4.27c-.17.39-.37.79-.56,1.21l-.15.3v0l-.06.1a7.9,7.9,0,0,0-1,3.83.69.69,0,0,1-.46.21,7.92,7.92,0,0,1,.94-3.43l.19-.41-.71-.62c-1.49-1.32-3.5-3.12-5.68-3a4.27,4.27,0,0,0-2.92,1.59,9.5,9.5,0,0,0-2.21,5.46c-.26,2.85.33,5.17,1.73,6.68a6.47,6.47,0,0,0,5,1.94H111a14.13,14.13,0,0,0,7.39-1.81l1-.64a24.58,24.58,0,0,1,2.27-1.34c2.79-1.36,5.74-1.63,8.84-1.91l.64-.06h.16l.29-.52.15-.56a1.44,1.44,0,0,0-.71-.1l-.63.06c-3.23.29-6.27.56-9.26,2a23.62,23.62,0,0,0-2.39,1.39l-1,.63a12.87,12.87,0,0,1-6.79,1.64,5.43,5.43,0,0,1-4.24-1.55c-1.17-1.26-1.66-3.26-1.43-5.76a8.43,8.43,0,0,1,1.93-4.8,3.06,3.06,0,0,1,2.09-1.18c1.67-.12,3.48,1.52,4.81,2.7l.06,0a7.86,7.86,0,0,0-.85,3.79,1.06,1.06,0,0,0,1.24.92c.8-.06,1.63-.63,1.57-1.44A6.76,6.76,0,0,1,117,205a1.07,1.07,0,0,0,.22-.44l0-.06c.21-.44.42-.86.59-1.27a14,14,0,0,0,.85-4.65,33.5,33.5,0,0,0-1.62-11.76A75.81,75.81,0,0,0,112.48,176a68.34,68.34,0,0,1-4.79-11.66,59.92,59.92,0,0,1-1.1-24.51c1.16-7.19,4.81-14.36,10.83-21.32,1.16-1.34,2.48-2.62,3.75-3.87,3.53-3.42,7.19-7,8.09-12.31a33,33,0,0,0-.17-8.87L129,92.35c-.5-4.69-1-9.41-1.41-14-.6-6.15-.75-12.44-.89-18.52-.08-3.47-.15-7.06-.32-10.58-.42-8.8.26-15.95,2.12-22.5,2.31-8.11,6-13.48,10.87-16a11.73,11.73,0,0,1,10,.36c1.27.72,2,2.2,2,4.39a3.91,3.91,0,0,1-1,3c-.94,1-2.59,1.44-4.8,1.4a1.88,1.88,0,0,0-1.28.58,1.7,1.7,0,0,0-.25.31,2.27,2.27,0,0,0-.89.35c-16.87,14.55-12.7,42.12-10.2,58.6,1.89,12.55,5.76,22.36,11.81,30,1.35,1.7,2.83,3.3,4.3,4.85l1.12,1.18.11.11c1.79,1.86,3.61,3.76,5.24,5.82.6.76,1.18,1.55,1.72,2.35a41.17,41.17,0,0,1,3.88,7.63,78.78,78.78,0,0,1,2.85,8,23.42,23.42,0,0,1,.7,6.45h0a9,9,0,0,0-4.17,2.36,7.76,7.76,0,0,0-1.11,8.11,4.77,4.77,0,0,0,2.68,2.32c-1.9,1.82-3.72,4.07-4,6.52a1.66,1.66,0,0,0-.77.1,12.82,12.82,0,0,0-1.32.73,13.28,13.28,0,0,0-1.66,1.24,12.86,12.86,0,0,0-2.76,3.51,18.05,18.05,0,0,0-1.93,6.19,37.68,37.68,0,0,0-.14,8c0,.12,0,.25,0,.37,0,.51.09,1,.16,1.49a29.33,29.33,0,0,0,2.1,7.68,27.1,27.1,0,0,0,1.41,2.86,28.42,28.42,0,0,0,2.61,3.89c.25.33.51.65.78,1a34.91,34.91,0,0,0,4.19,4.14c.41.33,1.93-.24,1.58-.54a34,34,0,0,1-4.63-4.67c-.26-.31-.51-.62-.74-.94a28.7,28.7,0,0,1-4-7.17,27.07,27.07,0,0,1-.9-2.72c-.24-.88-.44-1.79-.6-2.72-.06-.37-.12-.76-.18-1.15s-.14-1-.19-1.51a34.41,34.41,0,0,1-.06-7.39,21.33,21.33,0,0,1,.73-3.69,14.3,14.3,0,0,1,1.65-3.77h0a11.39,11.39,0,0,1,2.32-2.72A10.93,10.93,0,0,1,158,166.1a5.86,5.86,0,0,0,.95,3.16,2.72,2.72,0,0,0,.72.81,3.42,3.42,0,0,0,1.12.58c1.85.52,4.3-.32,6-1-.29,2.2.13,4.45,2.28,5.06,3.87,1.09,7.36-1.9,9.58-4.88a8.3,8.3,0,0,0,6.78-2.21,14.4,14.4,0,0,1,3.44,2.58,13.91,13.91,0,0,1,3.74,7.57,23.35,23.35,0,0,1,0,7.18c-.07.51-.16,1-.27,1.56a52.39,52.39,0,0,1-5.26,14.3s0,0,0,0a27.51,27.51,0,0,0-11.33,3.56c-.7.39,1,.24,1.25.08a24.31,24.31,0,0,1,10.43-3,1.56,1.56,0,0,0,.71,0c5.42-.06,10.48,2.08,11.84,8.09.45,2,.43,5.55-2.65,5.49-1.93,0-4-.88-5.83-1.28a55.22,55.22,0,0,0-12.57-1.1c-.42,0-1.85.63-.75.6a57.53,57.53,0,0,1,13,1.29c2,.43,4,1.29,6.12,1.09,4.52-.45,5.07-4.15,3.91-8.06-1.34-4.53-6.38-6.44-10.7-6.78-.56,0-1.12-.06-1.68-.06a64.4,64.4,0,0,0,2.82-6.22c6.74,4.34,15.57-2.08,18.87-8a17.3,17.3,0,0,0,.78-14.38c.24-.09.41-.22.43-.37.33-3.53,4.29-6.41,7.39-7.49,1.1-.39.11-.84-.59-.59-2.9,1-6.67,3.39-8,6.48a27.45,27.45,0,0,0-2.39-4.67,1,1,0,0,0,.45-.13c2.93-1.91,5-4.94,7.4-7.42,2.24-2.28,5.31-4.38,8.34-2.06,1.91,1.45,3.06,4.22,3.58,6.5.7,3,.26,6.37.71,9.48s2,6.09,3,9.13c1.27,4.11,2.54,12.16-.48,15.85-2.52,3.07-3.58-2.71-3.73-4-.29-2.43-.73-4.85-1.17-7.26a59,59,0,0,0-2.41-9.45c-1-2.87-2.84-5.22-1.86-8.42,1.08-3.57,2.63-8.16-2.39-8.89-3.22-.48-4.86,2.13-5,5,0,.39,1.64.19,1.67-.36.1-2.42,1.87-5.16,4.59-3,1.32,1.07.51,3.73.18,5-.72,2.91-1.46,4.61-.34,7.57a81.86,81.86,0,0,1,4.93,19c.36,2.94.64,6.64,4.48,6s4.28-4.74,4.32-7.81a41.21,41.21,0,0,0-1.13-9.77c-.8-3.5-2.59-6.58-3.11-10.18-.81-5.56.33-11.6-4.77-15.5-2.43-1.85-6-.7-8.26.75-3.74,2.38-5.82,6.64-9.4,9.18a9.29,9.29,0,0,0-5.07-3.72s0,0,0-.07c.49-2.85,1.05-5.71,1.79-8.51a44,44,0,0,1,3.1-8c.9-1.84,1.76-4.54,3.82-5.39,1.07-.44.12-.89-.59-.6-3.92,1.61-5.66,7.5-7,11.08a62,62,0,0,0-2.57,10.49,44.87,44.87,0,0,0-1,6.46,11.18,11.18,0,0,0,0,1.42,10.64,10.64,0,0,0,.17,1.11c.11.47,1.53.2,1.67-.25a.17.17,0,0,0,0-.12,8.63,8.63,0,0,1-.19-1.6,23,23,0,0,1,.6-5c2.73,1.25,4.31,4,5.6,6.66,1.63,3.41,2.92,6.8,2.79,10.62-.25,7.71-9.79,20.65-18.32,14a.76.76,0,0,0-.48-.07,44.47,44.47,0,0,0,1.85-6.52q.15-.8.27-1.59a24.11,24.11,0,0,0-.1-8.65,15.15,15.15,0,0,0-2-5.06h0a14.38,14.38,0,0,0-1.45-1.89,14,14,0,0,0-2.35-2.09,15.89,15.89,0,0,0-1.75-1.12,10.89,10.89,0,0,0,1.19-1.58,13.28,13.28,0,0,0,1-1.76c.1-.24.2-.48.29-.74h0a8.35,8.35,0,0,0,.44-2.57,5.93,5.93,0,0,1,2.19-.91,6,6,0,0,1,2.24-.16,52.2,52.2,0,0,0-2,8.16c0,.2,1.6.13,1.67-.36.74-5.09,2.81-10.44,4.68-15.22a145.36,145.36,0,0,1,6.4-13.54,74.79,74.79,0,0,1,7-11.07c2.94-3.85,7.63-1.17,9.42,2a16.72,16.72,0,0,1,1.85,6.36,45.3,45.3,0,0,1,.27,6.27c-.07,3-2.06,8.69-6.54,6.16-2.54-1.44-1.67-7.76-1.68-10.17s-.68-4.86-3.51-4.48a3.67,3.67,0,0,0-3.28,4.45c.05.34,1.73,0,1.67-.37-.15-.91.07-4.65,2.53-2.88.83.58.85,2.1.91,3,.14,2.1,0,4.21.11,6.32.18,3.71,1.77,5.66,5.5,5.16a6.53,6.53,0,0,0,5.77-5.76c.71-5.23.23-11.66-3-16-1.65-2.25-5.84-3.31-8.44-2.24-3.6,1.49-5.73,5.85-7.68,9a134.88,134.88,0,0,0-8.09,16c-1.21,2.73-2.42,5.71-3.43,8.73a7.15,7.15,0,0,0-2.53.17,7.91,7.91,0,0,0-2.08.77,7.11,7.11,0,0,0-.68-2.77,6.47,6.47,0,0,0-.5-.86,82.36,82.36,0,0,1,1.44-20.12C192.23,122,197.49,109.21,203,96.64Zm-78.44,6.9a.14.14,0,0,1,0,.14c0-.07,0-.13,0-.19A.08.08,0,0,1,124.53,103.54Zm-19.24,48.89c0-.05,0-.09,0-.14l0,0A.13.13,0,0,1,105.29,152.43Zm15.85-40.14c-5.77,5.75-10.24,10.95-13.33,17.63-2.22,4.78-3.38,10.23-3.6,17,0,.88,0,1.79,0,2.72s0,1.78.06,2.68c-.32.09-.66.17-1,.23-.82.05-1.79.1-2.67.13h-.2a18,18,0,0,1-7.4-2.43,26,26,0,0,1-8.84-8.12c-.29-.43-1.76.16-1.59.43a24.63,24.63,0,0,0,1.56,2.09h0a7.71,7.71,0,0,1-.82.24,19.78,19.78,0,0,1-3,0,25.8,25.8,0,0,1-5.73-2.13l-1.25-.71c-.48-.26-.93-.52-1.38-.78l-.65-.35c-.15-.09-.28-.19-.41-.28a37.31,37.31,0,0,0-6.31-3.43l-.26-.12a.81.81,0,0,1,.09-.1,10.47,10.47,0,0,1,2.28-1.92c1.33-.85,4.11-2.21,6.64-3.43l1.11-.54,3-1.43a3.9,3.9,0,0,1,1.59-.48c0,.57,0,1.14,0,1.72s1.64.38,1.64-.18c0-.81,0-1.6.07-2.4a7.77,7.77,0,0,0,.2-1.65c.19-3.08,2.56-10.17,4.08-12.83,1.15-2,3.75-4.8,7.93-8.5,2.16-1.54,4.48-2.91,6.77-4.25,1.06-.5,2-.9,2.63-1.15v.16c0,.28-.37,1.06.11,1.06s1.35,0,1.39-.56a9.65,9.65,0,0,1,.18-1.2,18.56,18.56,0,0,1,.7-2.27c.11-.3.23-.61.35-.92.23-.6.46-1.2.66-1.82.79-2.36,1.46-4.77,2.22-7.15.42-1.29.89-2.89,1.51-4.43A19.73,19.73,0,0,1,111.11,80c.34-.42.62-.67.82-.67l.22.22a.13.13,0,0,0,.07,0,18.23,18.23,0,0,0,2,1.78,40.6,40.6,0,0,1,3.34,3.35,12,12,0,0,1,1.32,1.93,9.93,9.93,0,0,1,.7,1.7,30.35,30.35,0,0,1,1.47,7.56,28.19,28.19,0,0,1-1,4.4s-.15.47-.18.55a14.82,14.82,0,0,1,1.82,1.22,7.73,7.73,0,0,1,2,2.15,20.84,20.84,0,0,1,1.43,3,.46.46,0,0,0,.18.23A34.21,34.21,0,0,1,121.14,112.29Zm66.15,50.3c-1.26,3.67-4.92,6.86-8.66,6-.53-.12-1.14.34-1.13.71-1.71,2.42-6.4,7.48-8.63,3.41-1.14-2.06-.26-5.25.83-7.17.22-.37-1.38-.29-1.64.18a10.73,10.73,0,0,0-1.07,2.82l-.25.07c-1.82.78-3.9,1.56-5.37.74a2.79,2.79,0,0,1-1-.92,4,4,0,0,1-.5-1c-1.14-3.24,1.42-6.14,3.68-8.23.21-.2.42-.38.62-.56.43-.38.08-.59-.38-.62a1.38,1.38,0,0,0-.94.21c-.15.14-.31.27-.45.41a4.48,4.48,0,0,1-2.11-1.79,6.51,6.51,0,0,1-.87-3.5,7.83,7.83,0,0,1,1-3.93,7.38,7.38,0,0,1,3.63-2.75,5.34,5.34,0,0,1,.52-.18,6,6,0,0,1,1.58-.2,6.83,6.83,0,0,1,.77.06c.35,0,.7.11,1.05.18l1.31.28a15.09,15.09,0,0,0-1.32,1.69s0,0,0,0,0,0,0,0,0,0,0,0,0,0,0,0a15.3,15.3,0,0,0-1.84,3.34c-.16.42,1.48.28,1.66-.18a8.12,8.12,0,0,1,.56-1.24,13.3,13.3,0,0,1,1.27-2c.68-.92,1.44-1.8,2.21-2.67,2.53-2.93,6.29-2.45,8.55.42s1.53,8.51-2.21,9.87c-1.1.4-.1.77.58.52a6.78,6.78,0,0,0,3.82-3.46,11,11,0,0,1,3.91,3.07,0,0,0,0,0,0,0,6.78,6.78,0,0,1,1,2.34A7.55,7.55,0,0,1,187.29,162.59Z"/><path class="a02e969c-f86f-40df-9fe0-393f68493e01" d="M111.8,106.37a15.3,15.3,0,0,0-6.35,6.3h0a15,15,0,0,1-2.72,7.22c-.14.21-1.57.69-1.57.35,0-2.78,1.71-5.3,2.94-7.68a15.1,15.1,0,0,1,6.51-6.22C110.89,106.2,112.47,106,111.8,106.37Z"/><path class="a02e969c-f86f-40df-9fe0-393f68493e01" d="M96.39,126.16c-1.81,1.42-3.78,2.6-5.7,3.86a.84.84,0,0,1-.31.12,9.33,9.33,0,0,0-.58.86,16.93,16.93,0,0,0-2,6.14c-.1.57-1.69.84-1.59.18a14.76,14.76,0,0,1,4.07-8.71c1.51-1.46,3.5-3.32,5.76-3.07C96.37,125.58,96.79,125.86,96.39,126.16Z"/></g></g></svg>