<svg xmlns="http://www.w3.org/2000/svg" viewBox="0 0 142.99 142.99"><defs><style>.fb69f546-588d-4634-a604-cae266b01db4{fill:none;stroke:#010101;stroke-miterlimit:10;stroke-width:5px;}</style></defs><title>tAsset 4</title><g id="a8638863-534d-401a-9344-cbead649f600" data-name="Layer 2"><g id="a1de4700-12c0-43a0-8e6f-18220aa6608e" data-name="Layer 1"><path class="fb69f546-588d-4634-a604-cae266b01db4" d="M111.17,116.11A84.36,84.36,0,0,1,26.9,31.84a5,5,0,0,1,5-5H50.17a5,5,0,0,1,4.95,5,54.48,54.48,0,0,0,5.55,24.23,4.94,4.94,0,0,1,.22,3.81,5,5,0,0,1-2.54,2.85l-7.41,3.56A69.68,69.68,0,0,0,76.69,92l3.56-7.38a5.15,5.15,0,0,1,2.85-2.54,5.09,5.09,0,0,1,3.81.22,54.57,54.57,0,0,0,24.23,5.55,5,5,0,0,1,5,5v18.31h0A4.93,4.93,0,0,1,111.17,116.11Z"/><rect class="fb69f546-588d-4634-a604-cae266b01db4" x="2.5" y="2.5" width="137.99" height="137.99" rx="7.4"/></g></g></svg>