<svg xmlns="http://www.w3.org/2000/svg" viewBox="0 0 342.64 363.34"><defs><style>.f4f995f6-877e-4d8b-b0a9-8c448d4634f4{fill:#231f20;}</style></defs><g id="aaf85ea7-abd9-4e7a-a920-71fab4c21b64" data-name="Layer 2"><g id="b4e6936c-d50e-45b0-bf9e-667ece3fe23e" data-name="Varken"><path class="f4f995f6-877e-4d8b-b0a9-8c448d4634f4" d="M217.59,133.06a107.18,107.18,0,0,0-31.79,5.58,110.63,110.63,0,0,0-15.23,6.43,82.56,82.56,0,0,0-9.4,5.27q-6.07,1.62-12,3.76a143.36,143.36,0,0,0-41.27,23.07c-3.26,2.64-7.42,5.72-8.27,10.12-1.6,8.58,9.41,11.77,15.86,12a63.83,63.83,0,0,0,18.7-2c5.19-1.32,10.85-3.16,15-6.61,3.21-2.66,5.66-6.74,4.11-11a7.83,7.83,0,0,0-9.85-5c-3.09.95-2.22,4.3.89,3.35,4-1.21,4.69,5.77,3.56,7.93-1.53,3-4.88,4.58-7.85,5.79a54.22,54.22,0,0,1-24,3.87c-5.51-.39-15.09-4.34-10.09-11.35,1.92-2.66,4.9-4.66,7.45-6.64,3.09-2.37,6.27-4.63,9.54-6.74a135.78,135.78,0,0,1,33.29-15.54c-.84,2.29.34,4.51,3.45,5.24,4.79,1.16,10.48.4,15.2-.71,3.53-.84,10-2.24,11.16-6.32,1.11-3.9-3-6.29-6.32-6.53a26.69,26.69,0,0,0-5.87.34,101.05,101.05,0,0,1,43.27-10.74C220,136.59,221.06,133,217.59,133.06Zm-43.54,18c1.74-.29,4.35-1,5.87.1,3.11,2.38-1.29,4-3.08,4.56a33.65,33.65,0,0,1-12.19,1.66c-.61,0-2.4.13-2.82-.32-1.5-1.55-.05-2.45.84-3.1.34-.27.69-.5,1.06-.74C167.15,152.42,170.57,151.68,174.05,151.1Z"/><path class="f4f995f6-877e-4d8b-b0a9-8c448d4634f4" d="M100,212.44c-2.36,2.11-4.71,4.25-7,6.45-1.82,1.76-3.83,3.91-4.18,6.53a4.84,4.84,0,0,0,2.8,5.1,7.09,7.09,0,0,0,7.93-1.61c.78-.89-.67-1.18-1.29-1.17a4.91,4.91,0,0,0-3.38,1.31c-.27.3,0,0,.15-.05a3.9,3.9,0,0,1,1.46-.38c.41-.07.08,0-.11,0,.31.06-.21-.1-.23-.1a4,4,0,0,1-1.6-1.27c-1.08-1.4-.74-3.21,0-4.68a17.93,17.93,0,0,1,4-4.61q2.68-2.53,5.44-5c.23-.2.65-.54.55-.93s-.64-.49-.94-.53a5.1,5.1,0,0,0-3.6,1Z"/><path class="f4f995f6-877e-4d8b-b0a9-8c448d4634f4" d="M334.64,134.11c-5.75-3-12.59-2.89-18.81-1.79-16.12,2.87-31.79,9.8-45.43,18.78a3.33,3.33,0,0,0-.34.24c-.06,0-.08,0-.11.08-3.19,1.76-6.14,4-7.85,7.16-2.87,5.27-.34,11,4.45,14,5.22,3.31,11.8,2.81,17.57,1.65a150.93,150.93,0,0,0,21.2-6.18,167.08,167.08,0,0,0,16.2-6.88c6.24,16.78.74,35.66-10.75,48.94-12.9,14.9-32.84,21.78-51.91,24.1a142,142,0,0,1-37.92-.4c-1.95-12.48-5.35-25.28-11.3-36.32-7.83-14.54-21.13-23.33-35.24-31.08-1.4-.76-5.72,1.32-4.77,1.85,11.09,6.08,22.28,12.77,30.05,23,8,10.49,11.85,23.6,14.64,36.3,5.48,24.94,5.35,53.59-12.93,73.48-9.4,10.24-24.39,17.88-38.24,12.17-1.26-.53-5.9,1.44-4.11,2.18a31.45,31.45,0,0,0,14,2.16,2.41,2.41,0,0,0-1.55,1.66,114,114,0,0,1-8.38,28.39c-2.08,4.59-4.69,7.77-9.69,9.14a102.3,102.3,0,0,1-13.59,2.19,73.3,73.3,0,0,1-14.8.55c-2.32-.18-5.17-.34-7.3-1.26-2.61-1.13-1.69-4.24-1.45-6.56,1.06-10.38,2.08-20.75,3.14-31.16.26-2.58-4.93-1.89-5.14.4-.66,6.4-1.29,12.77-1.95,19.17-.18,2-.39,4-.6,6a4,4,0,0,0-2.51.82c-3.53,3.58-10.43,3.26-15.09,3.6a163.53,163.53,0,0,1-18,.37c-4.69-.16-12.22.85-13.51-5-1.17-5.38-1.47-11.09-2.1-16.58a50,50,0,0,1,7.73,2.38c1.15.49,3-.18,4.06-.7.68-.34,1.85-1.15.68-1.64-5-2.1-10.37-2.78-15.49-4.43a22.89,22.89,0,0,1-6.87-3.37,28.06,28.06,0,0,1-6-6.62A215.43,215.43,0,0,1,28.79,288c-3.31-6.59-7-13-10.19-19.62S12,255,9.63,248.14a82.82,82.82,0,0,1-4.46-28.31,78,78,0,0,1,7.57-32.33,59.36,59.36,0,0,1,30.6-29.39c14.3-6.19,30-9.83,45.43-11.65a181.22,181.22,0,0,1,53.57,1.74,3.22,3.22,0,0,0,3.27-1.76c-.08,2-.08,4,0,6,0,.66,5.14-.05,5.09-1.37-.45-18.67,4-38.19,16.17-52.49a91.9,91.9,0,0,0-1.53,11.06c-.13,1.85-.32,3.8.53,5.48a6.92,6.92,0,0,0,4.45,3.24c9.53,3.11,19.25,5.69,28.89,8.54,1.5.44,3.74-.14,4-2,.92-6.17,1.45-14.15-3.71-18.68-1.19-1-3.27-1.47-4.14-2.76s-.76-3.66-.79-5.19c-.08-3.27.16-7.14,3.14-9.09a1.74,1.74,0,0,0,.23-2.79c-1.05-.87-2.66-.39-3.66.26-3.16,2.09-4.55,5.69-4.82,9.35-.26,3.32-.47,8.62,2.35,10.91,1.39,1.13,3.16,1.55,4.34,3a10,10,0,0,1,2,4.46,23.68,23.68,0,0,1,.24,7.84c-7.54-2.21-15.07-4.45-22.6-6.66-1.42-.42-4-.71-4.95-2s-.42-3.74-.29-5.27a92.75,92.75,0,0,1,2.18-13.46,1.29,1.29,0,0,0-.84-1.47c.55-.48,1.11-1,1.69-1.45C183,84,194,81.49,205.74,79.28L242,72.4c1.95-.34,4.61-2.34,1-1.66l-3.39.66c1.1-.92,1.42-2.34-.69-2.74-5.87-1.08-6.32-9.29-4.95-13.72,2.08-6.74,6.35-12.32,7.72-19.36A74.67,74.67,0,0,0,243,22.65c3.11,4.24,6.59,8.27,10,12.27a152.53,152.53,0,0,1,12.35,16.62c2,3.16,3.82,6.4,5.48,9.75s3.55,7,2,10.56v0c-1.55,1-2.19,3.05.29,3.29,5.79.5,10.11,6,13.59,10.11a83.45,83.45,0,0,1,19.17,45.94c.24,2.44,5.32,1.21,5.09-1.37a86.86,86.86,0,0,0-11.14-34.69,85.65,85.65,0,0,0-10.59-14.62C286,77,282.41,73.33,277.8,71.9c2.37-6-1.95-12.43-4.82-17.51A128.23,128.23,0,0,0,260.36,36c-6.08-7.45-12.9-14.7-17.56-23.07-.43-4.56-1.66-8.9-5-12.35-1.23-1.29-5.4-.45-4.87,1.76a46.45,46.45,0,0,0,4.77,12.12c.18,2.34.13,4.71.08,7-.21,7.77-.58,15.65-3.93,22.81-2.63,5.61-6.45,11.27-5.69,17.75.61,4.87,3.51,8.77,8.25,9.93-8.25,1.58-16.46,3.14-24.71,4.69-9.56,1.79-19.33,3.27-28.39,7-15.83,6.53-27.47,20.38-33.11,36.34a86.14,86.14,0,0,0-4.6,25.52,2,2,0,0,0-1.51-.87c-33-6-68-3.08-99.29,9.12-14.25,5.55-26,14.35-33.92,27.6A79.9,79.9,0,0,0,0,223.11c.22,18,6,35.54,13.83,51.64a246.68,246.68,0,0,0,18.89,32.91c6.46,9.35,11.83,17.5,23.41,20.47a1.63,1.63,0,0,0-.79,1.49q.7,5.69,1.42,11.35c.34,2.9.32,6.29,1.82,8.87,1.32,2.22,3.71,3.09,6.14,3.48a83.19,83.19,0,0,0,10.58.71,174.85,174.85,0,0,0,21.36-.68c5-.48,10.51-.87,14.73-3.74-.24,2.5-1,5.48-.48,8,1,4.66,7.46,5,11.25,5.42a74.91,74.91,0,0,0,17.25-.42c9.67-1.18,21.23-1.71,26.79-10.95,2.95-4.88,4.82-10.59,6.5-16a128.51,128.51,0,0,0,4-16.88,1.27,1.27,0,0,0-1-1.53,48.6,48.6,0,0,0,19.15-7,58.3,58.3,0,0,0,22.31-26.63c5.9-13.83,6.48-29.45,4.61-44.17-.08-.55-.14-1.11-.24-1.66,39.08,5.11,92.07-4.69,105.45-47.46,3.22-10.27,3.35-21.33-.68-31.42a.07.07,0,0,0,0-.05c3.3-1.71,6.61-3.53,9.75-5.48,2.32-1.45,4.87-3.08,6-5.69C344.49,142.09,339.17,136.51,334.64,134.11Zm1.5,15.28c-1.77,2.24-5,3.61-7.38,5a164.29,164.29,0,0,1-16,8,161.16,161.16,0,0,1-16.69,6.17c-5.4,1.66-11.3,3.68-17,3.81-5.92.16-13.3-3.42-13.09-10.32.19-5.93,6.38-9.11,11.09-11.27,1.11-.5,1.48-1,1.42-1.4a118.81,118.81,0,0,1,26-11.67c9.75-3,24.1-6.92,31.21,3.22C337.48,143.49,338.27,146.75,336.14,149.39Z"/><path class="f4f995f6-877e-4d8b-b0a9-8c448d4634f4" d="M289.59,158.08l4.91-1.65a3.38,3.38,0,0,0,1.66-1,1.74,1.74,0,0,0,.39-1.5c-.39-1.18-2-1.53-3-1.16l-4.91,1.65a3.39,3.39,0,0,0-1.65,1,1.75,1.75,0,0,0-.4,1.5,2.4,2.4,0,0,0,3,1.16Z"/><path class="f4f995f6-877e-4d8b-b0a9-8c448d4634f4" d="M310.1,147.91l6.06-.73a5.18,5.18,0,0,0,1.93-.64c.3-.17.91-.58,1-1,.19-1.08-1.53-1-2.15-.92l-6.05.74a5.12,5.12,0,0,0-1.93.64c-.3.17-.92.58-1,1-.18,1.08,1.53,1,2.15.91Z"/><path class="f4f995f6-877e-4d8b-b0a9-8c448d4634f4" d="M281,119.33l7.71-4c.71-.37,1.5-1.51.44-2a4.33,4.33,0,0,0-3.6.47l-7.71,4c-.71.36-1.51,1.51-.45,2a4.35,4.35,0,0,0,3.61-.47Z"/><path class="f4f995f6-877e-4d8b-b0a9-8c448d4634f4" d="M220.12,146.5a50.27,50.27,0,0,1,19.65-10.56c.63-.18,2.48-.76,2.27-1.71s-2.33-.48-2.82-.35A59,59,0,0,0,216.14,146c-.74.64-.65,1.31.39,1.45a5.12,5.12,0,0,0,3.59-1Z"/><path class="f4f995f6-877e-4d8b-b0a9-8c448d4634f4" d="M253,66.37c1,0,2.91-.18,3.6-1,.49-.55,1-1-.28-1-1,0-2.91.18-3.6,1-.49.55-1,1.05.28,1.05Z"/><path class="f4f995f6-877e-4d8b-b0a9-8c448d4634f4" d="M307.67,174.13a28.34,28.34,0,0,1,2.9,2.46c.43.42,1.24,1,.86,1.72-.19.35-.8.65-1.11.87a24.6,24.6,0,0,1-5.75,3,14.26,14.26,0,0,1-11.8-1c-.87-.49-2.4,0-3.26.34-.23.08-2.27,1-1.54,1.36,5.62,3.15,12.46,2.38,18.32.31a34.91,34.91,0,0,0,8.35-4.29c1-.67,2.6-1.63,1.72-3a16,16,0,0,0-3.89-3.52c-.75-.56-2.5.06-3.26.34-.3.1-2.22.86-1.54,1.36Z"/></g></g></svg>